<mxfile host="app.diagrams.net" modified="2024-04-07T04:12:54.582Z" agent="Mozilla/5.0 (Macintosh; Intel Mac OS X 10_15_7) AppleWebKit/537.36 (KHTML, like Gecko) Chrome/123.0.0.0 Safari/537.36" etag="9_pPOJaiAY8FU2vl1x5c" version="24.2.2" type="device">
  <diagram id="R2lEEEUBdFMjLlhIrx00" name="Page-1">
    <mxGraphModel dx="954" dy="606" grid="1" gridSize="10" guides="1" tooltips="1" connect="1" arrows="1" fold="1" page="1" pageScale="1" pageWidth="850" pageHeight="1100" math="0" shadow="0" extFonts="Permanent Marker^https://fonts.googleapis.com/css?family=Permanent+Marker">
      <root>
        <mxCell id="0" />
        <mxCell id="1" parent="0" />
        <mxCell id="bdTvPmMyvIndACcMK4d0-364" style="edgeStyle=orthogonalEdgeStyle;rounded=0;orthogonalLoop=1;jettySize=auto;html=1;entryX=1;entryY=0.5;entryDx=0;entryDy=0;exitX=0.5;exitY=1;exitDx=0;exitDy=0;endArrow=none;endFill=0;" parent="1" source="bdTvPmMyvIndACcMK4d0-181" target="bdTvPmMyvIndACcMK4d0-362" edge="1">
          <mxGeometry relative="1" as="geometry" />
        </mxCell>
        <mxCell id="bdTvPmMyvIndACcMK4d0-181" value="treatment_room" style="shape=table;startSize=30;container=1;collapsible=1;childLayout=tableLayout;fixedRows=1;rowLines=0;fontStyle=1;align=center;resizeLast=1;" parent="1" vertex="1">
          <mxGeometry x="1420" y="68" width="180" height="130" as="geometry" />
        </mxCell>
        <mxCell id="bdTvPmMyvIndACcMK4d0-182" value="" style="shape=partialRectangle;collapsible=0;dropTarget=0;pointerEvents=0;fillColor=none;points=[[0,0.5],[1,0.5]];portConstraint=eastwest;top=0;left=0;right=0;bottom=1;" parent="bdTvPmMyvIndACcMK4d0-181" vertex="1">
          <mxGeometry y="30" width="180" height="30" as="geometry" />
        </mxCell>
        <mxCell id="bdTvPmMyvIndACcMK4d0-183" value="PK" style="shape=partialRectangle;overflow=hidden;connectable=0;fillColor=none;top=0;left=0;bottom=0;right=0;fontStyle=1;" parent="bdTvPmMyvIndACcMK4d0-182" vertex="1">
          <mxGeometry width="30" height="30" as="geometry">
            <mxRectangle width="30" height="30" as="alternateBounds" />
          </mxGeometry>
        </mxCell>
        <mxCell id="bdTvPmMyvIndACcMK4d0-184" value="roomNo" style="shape=partialRectangle;overflow=hidden;connectable=0;fillColor=none;top=0;left=0;bottom=0;right=0;align=left;spacingLeft=6;fontStyle=5;" parent="bdTvPmMyvIndACcMK4d0-182" vertex="1">
          <mxGeometry x="30" width="150" height="30" as="geometry">
            <mxRectangle width="150" height="30" as="alternateBounds" />
          </mxGeometry>
        </mxCell>
        <mxCell id="bdTvPmMyvIndACcMK4d0-185" value="" style="shape=partialRectangle;collapsible=0;dropTarget=0;pointerEvents=0;fillColor=none;points=[[0,0.5],[1,0.5]];portConstraint=eastwest;top=0;left=0;right=0;bottom=0;" parent="bdTvPmMyvIndACcMK4d0-181" vertex="1">
          <mxGeometry y="60" width="180" height="30" as="geometry" />
        </mxCell>
        <mxCell id="bdTvPmMyvIndACcMK4d0-186" value="" style="shape=partialRectangle;overflow=hidden;connectable=0;fillColor=none;top=0;left=0;bottom=0;right=0;" parent="bdTvPmMyvIndACcMK4d0-185" vertex="1">
          <mxGeometry width="30" height="30" as="geometry">
            <mxRectangle width="30" height="30" as="alternateBounds" />
          </mxGeometry>
        </mxCell>
        <mxCell id="bdTvPmMyvIndACcMK4d0-187" value="roomName" style="shape=partialRectangle;overflow=hidden;connectable=0;fillColor=none;top=0;left=0;bottom=0;right=0;align=left;spacingLeft=6;" parent="bdTvPmMyvIndACcMK4d0-185" vertex="1">
          <mxGeometry x="30" width="150" height="30" as="geometry">
            <mxRectangle width="150" height="30" as="alternateBounds" />
          </mxGeometry>
        </mxCell>
        <mxCell id="bdTvPmMyvIndACcMK4d0-188" value="" style="shape=partialRectangle;collapsible=0;dropTarget=0;pointerEvents=0;fillColor=none;points=[[0,0.5],[1,0.5]];portConstraint=eastwest;top=0;left=0;right=0;bottom=0;" parent="bdTvPmMyvIndACcMK4d0-181" vertex="1">
          <mxGeometry y="90" width="180" height="30" as="geometry" />
        </mxCell>
        <mxCell id="bdTvPmMyvIndACcMK4d0-189" value="" style="shape=partialRectangle;overflow=hidden;connectable=0;fillColor=none;top=0;left=0;bottom=0;right=0;" parent="bdTvPmMyvIndACcMK4d0-188" vertex="1">
          <mxGeometry width="30" height="30" as="geometry">
            <mxRectangle width="30" height="30" as="alternateBounds" />
          </mxGeometry>
        </mxCell>
        <mxCell id="bdTvPmMyvIndACcMK4d0-190" value="facility" style="shape=partialRectangle;overflow=hidden;connectable=0;fillColor=none;top=0;left=0;bottom=0;right=0;align=left;spacingLeft=6;" parent="bdTvPmMyvIndACcMK4d0-188" vertex="1">
          <mxGeometry x="30" width="150" height="30" as="geometry">
            <mxRectangle width="150" height="30" as="alternateBounds" />
          </mxGeometry>
        </mxCell>
        <mxCell id="bdTvPmMyvIndACcMK4d0-191" style="edgeStyle=orthogonalEdgeStyle;rounded=0;orthogonalLoop=1;jettySize=auto;html=1;exitX=0;exitY=0.5;exitDx=0;exitDy=0;entryX=1;entryY=0.5;entryDx=0;entryDy=0;endArrow=none;endFill=0;" parent="1" source="bdTvPmMyvIndACcMK4d0-196" target="bdTvPmMyvIndACcMK4d0-360" edge="1">
          <mxGeometry relative="1" as="geometry" />
        </mxCell>
        <mxCell id="bdTvPmMyvIndACcMK4d0-363" style="edgeStyle=orthogonalEdgeStyle;rounded=0;orthogonalLoop=1;jettySize=auto;html=1;endArrow=none;endFill=0;exitX=0.5;exitY=1;exitDx=0;exitDy=0;entryX=0;entryY=0.5;entryDx=0;entryDy=0;" parent="1" source="bdTvPmMyvIndACcMK4d0-192" target="bdTvPmMyvIndACcMK4d0-362" edge="1">
          <mxGeometry relative="1" as="geometry">
            <mxPoint x="1130" y="330" as="sourcePoint" />
            <mxPoint x="1370" y="530" as="targetPoint" />
            <Array as="points">
              <mxPoint x="956" y="495" />
            </Array>
          </mxGeometry>
        </mxCell>
        <mxCell id="bdTvPmMyvIndACcMK4d0-192" value="eye_surgeon" style="shape=table;startSize=30;container=1;collapsible=1;childLayout=tableLayout;fixedRows=1;rowLines=0;fontStyle=1;align=center;resizeLast=1;" parent="1" vertex="1">
          <mxGeometry x="831" y="68" width="219" height="220" as="geometry" />
        </mxCell>
        <mxCell id="bdTvPmMyvIndACcMK4d0-193" value="" style="shape=partialRectangle;collapsible=0;dropTarget=0;pointerEvents=0;fillColor=none;points=[[0,0.5],[1,0.5]];portConstraint=eastwest;top=0;left=0;right=0;bottom=1;" parent="bdTvPmMyvIndACcMK4d0-192" vertex="1">
          <mxGeometry y="30" width="219" height="30" as="geometry" />
        </mxCell>
        <mxCell id="bdTvPmMyvIndACcMK4d0-194" value="PK" style="shape=partialRectangle;overflow=hidden;connectable=0;fillColor=none;top=0;left=0;bottom=0;right=0;fontStyle=1;" parent="bdTvPmMyvIndACcMK4d0-193" vertex="1">
          <mxGeometry width="30" height="30" as="geometry">
            <mxRectangle width="30" height="30" as="alternateBounds" />
          </mxGeometry>
        </mxCell>
        <mxCell id="bdTvPmMyvIndACcMK4d0-195" value="surgeonID" style="shape=partialRectangle;overflow=hidden;connectable=0;fillColor=none;top=0;left=0;bottom=0;right=0;align=left;spacingLeft=6;fontStyle=5;" parent="bdTvPmMyvIndACcMK4d0-193" vertex="1">
          <mxGeometry x="30" width="189" height="30" as="geometry">
            <mxRectangle width="189" height="30" as="alternateBounds" />
          </mxGeometry>
        </mxCell>
        <mxCell id="bdTvPmMyvIndACcMK4d0-196" value="" style="shape=partialRectangle;collapsible=0;dropTarget=0;pointerEvents=0;fillColor=none;points=[[0,0.5],[1,0.5]];portConstraint=eastwest;top=0;left=0;right=0;bottom=0;" parent="bdTvPmMyvIndACcMK4d0-192" vertex="1">
          <mxGeometry y="60" width="219" height="30" as="geometry" />
        </mxCell>
        <mxCell id="bdTvPmMyvIndACcMK4d0-197" value="" style="shape=partialRectangle;overflow=hidden;connectable=0;fillColor=none;top=0;left=0;bottom=0;right=0;" parent="bdTvPmMyvIndACcMK4d0-196" vertex="1">
          <mxGeometry width="30" height="30" as="geometry">
            <mxRectangle width="30" height="30" as="alternateBounds" />
          </mxGeometry>
        </mxCell>
        <mxCell id="bdTvPmMyvIndACcMK4d0-198" value="fName" style="shape=partialRectangle;overflow=hidden;connectable=0;fillColor=none;top=0;left=0;bottom=0;right=0;align=left;spacingLeft=6;" parent="bdTvPmMyvIndACcMK4d0-196" vertex="1">
          <mxGeometry x="30" width="189" height="30" as="geometry">
            <mxRectangle width="189" height="30" as="alternateBounds" />
          </mxGeometry>
        </mxCell>
        <mxCell id="bdTvPmMyvIndACcMK4d0-199" value="" style="shape=partialRectangle;collapsible=0;dropTarget=0;pointerEvents=0;fillColor=none;points=[[0,0.5],[1,0.5]];portConstraint=eastwest;top=0;left=0;right=0;bottom=0;" parent="bdTvPmMyvIndACcMK4d0-192" vertex="1">
          <mxGeometry y="90" width="219" height="30" as="geometry" />
        </mxCell>
        <mxCell id="bdTvPmMyvIndACcMK4d0-200" value="" style="shape=partialRectangle;overflow=hidden;connectable=0;fillColor=none;top=0;left=0;bottom=0;right=0;" parent="bdTvPmMyvIndACcMK4d0-199" vertex="1">
          <mxGeometry width="30" height="30" as="geometry">
            <mxRectangle width="30" height="30" as="alternateBounds" />
          </mxGeometry>
        </mxCell>
        <mxCell id="bdTvPmMyvIndACcMK4d0-201" value="lName" style="shape=partialRectangle;overflow=hidden;connectable=0;fillColor=none;top=0;left=0;bottom=0;right=0;align=left;spacingLeft=6;" parent="bdTvPmMyvIndACcMK4d0-199" vertex="1">
          <mxGeometry x="30" width="189" height="30" as="geometry">
            <mxRectangle width="189" height="30" as="alternateBounds" />
          </mxGeometry>
        </mxCell>
        <mxCell id="bdTvPmMyvIndACcMK4d0-564" value="" style="shape=partialRectangle;collapsible=0;dropTarget=0;pointerEvents=0;fillColor=none;points=[[0,0.5],[1,0.5]];portConstraint=eastwest;top=0;left=0;right=0;bottom=0;" parent="bdTvPmMyvIndACcMK4d0-192" vertex="1">
          <mxGeometry y="120" width="219" height="30" as="geometry" />
        </mxCell>
        <mxCell id="bdTvPmMyvIndACcMK4d0-565" value="" style="shape=partialRectangle;overflow=hidden;connectable=0;fillColor=none;top=0;left=0;bottom=0;right=0;" parent="bdTvPmMyvIndACcMK4d0-564" vertex="1">
          <mxGeometry width="30" height="30" as="geometry">
            <mxRectangle width="30" height="30" as="alternateBounds" />
          </mxGeometry>
        </mxCell>
        <mxCell id="bdTvPmMyvIndACcMK4d0-566" value="phoneNum" style="shape=partialRectangle;overflow=hidden;connectable=0;fillColor=none;top=0;left=0;bottom=0;right=0;align=left;spacingLeft=6;" parent="bdTvPmMyvIndACcMK4d0-564" vertex="1">
          <mxGeometry x="30" width="189" height="30" as="geometry">
            <mxRectangle width="189" height="30" as="alternateBounds" />
          </mxGeometry>
        </mxCell>
        <mxCell id="bdTvPmMyvIndACcMK4d0-567" value="" style="shape=partialRectangle;collapsible=0;dropTarget=0;pointerEvents=0;fillColor=none;points=[[0,0.5],[1,0.5]];portConstraint=eastwest;top=0;left=0;right=0;bottom=0;" parent="bdTvPmMyvIndACcMK4d0-192" vertex="1">
          <mxGeometry y="150" width="219" height="30" as="geometry" />
        </mxCell>
        <mxCell id="bdTvPmMyvIndACcMK4d0-568" value="" style="shape=partialRectangle;overflow=hidden;connectable=0;fillColor=none;top=0;left=0;bottom=0;right=0;" parent="bdTvPmMyvIndACcMK4d0-567" vertex="1">
          <mxGeometry width="30" height="30" as="geometry">
            <mxRectangle width="30" height="30" as="alternateBounds" />
          </mxGeometry>
        </mxCell>
        <mxCell id="bdTvPmMyvIndACcMK4d0-569" value="qualification" style="shape=partialRectangle;overflow=hidden;connectable=0;fillColor=none;top=0;left=0;bottom=0;right=0;align=left;spacingLeft=6;" parent="bdTvPmMyvIndACcMK4d0-567" vertex="1">
          <mxGeometry x="30" width="189" height="30" as="geometry">
            <mxRectangle width="189" height="30" as="alternateBounds" />
          </mxGeometry>
        </mxCell>
        <mxCell id="bdTvPmMyvIndACcMK4d0-570" value="" style="shape=partialRectangle;collapsible=0;dropTarget=0;pointerEvents=0;fillColor=none;points=[[0,0.5],[1,0.5]];portConstraint=eastwest;top=0;left=0;right=0;bottom=0;" parent="bdTvPmMyvIndACcMK4d0-192" vertex="1">
          <mxGeometry y="180" width="219" height="30" as="geometry" />
        </mxCell>
        <mxCell id="bdTvPmMyvIndACcMK4d0-571" value="FK1" style="shape=partialRectangle;overflow=hidden;connectable=0;fillColor=none;top=0;left=0;bottom=0;right=0;" parent="bdTvPmMyvIndACcMK4d0-570" vertex="1">
          <mxGeometry width="30" height="30" as="geometry">
            <mxRectangle width="30" height="30" as="alternateBounds" />
          </mxGeometry>
        </mxCell>
        <mxCell id="bdTvPmMyvIndACcMK4d0-572" value="prescribedCode" style="shape=partialRectangle;overflow=hidden;connectable=0;fillColor=none;top=0;left=0;bottom=0;right=0;align=left;spacingLeft=6;" parent="bdTvPmMyvIndACcMK4d0-570" vertex="1">
          <mxGeometry x="30" width="189" height="30" as="geometry">
            <mxRectangle width="189" height="30" as="alternateBounds" />
          </mxGeometry>
        </mxCell>
        <mxCell id="bdTvPmMyvIndACcMK4d0-202" style="edgeStyle=orthogonalEdgeStyle;rounded=0;orthogonalLoop=1;jettySize=auto;html=1;exitX=0;exitY=0.5;exitDx=0;exitDy=0;entryX=1;entryY=0.5;entryDx=0;entryDy=0;endArrow=none;endFill=0;" parent="1" source="bdTvPmMyvIndACcMK4d0-208" target="bdTvPmMyvIndACcMK4d0-234" edge="1">
          <mxGeometry relative="1" as="geometry">
            <mxPoint x="1329.9999999999998" y="253" as="sourcePoint" />
            <mxPoint x="1330" y="344" as="targetPoint" />
          </mxGeometry>
        </mxCell>
        <mxCell id="bdTvPmMyvIndACcMK4d0-373" style="edgeStyle=orthogonalEdgeStyle;rounded=0;orthogonalLoop=1;jettySize=auto;html=1;exitX=1;exitY=0.5;exitDx=0;exitDy=0;endArrow=none;endFill=0;" parent="1" source="bdTvPmMyvIndACcMK4d0-208" target="bdTvPmMyvIndACcMK4d0-217" edge="1">
          <mxGeometry relative="1" as="geometry">
            <mxPoint x="310" y="1145" as="sourcePoint" />
          </mxGeometry>
        </mxCell>
        <mxCell id="bdTvPmMyvIndACcMK4d0-204" value="customer" style="shape=table;startSize=30;container=1;collapsible=1;childLayout=tableLayout;fixedRows=1;rowLines=0;fontStyle=1;align=center;resizeLast=1;html=1;" parent="1" vertex="1">
          <mxGeometry x="914" y="825.5" width="180" height="180" as="geometry" />
        </mxCell>
        <mxCell id="bdTvPmMyvIndACcMK4d0-205" value="" style="shape=tableRow;horizontal=0;startSize=0;swimlaneHead=0;swimlaneBody=0;fillColor=none;collapsible=0;dropTarget=0;points=[[0,0.5],[1,0.5]];portConstraint=eastwest;top=0;left=0;right=0;bottom=1;" parent="bdTvPmMyvIndACcMK4d0-204" vertex="1">
          <mxGeometry y="30" width="180" height="30" as="geometry" />
        </mxCell>
        <mxCell id="bdTvPmMyvIndACcMK4d0-206" value="PK" style="shape=partialRectangle;connectable=0;fillColor=none;top=0;left=0;bottom=0;right=0;fontStyle=1;overflow=hidden;whiteSpace=wrap;html=1;" parent="bdTvPmMyvIndACcMK4d0-205" vertex="1">
          <mxGeometry width="30" height="30" as="geometry">
            <mxRectangle width="30" height="30" as="alternateBounds" />
          </mxGeometry>
        </mxCell>
        <mxCell id="bdTvPmMyvIndACcMK4d0-207" value="&lt;span style=&quot;font-size: 11pt; line-height: 15.6933px; font-family: Aptos, sans-serif;&quot; lang=&quot;EN-AU&quot;&gt;clientNo&lt;/span&gt;&lt;span style=&quot;font-size: medium; font-weight: 400;&quot;&gt;&lt;/span&gt;" style="shape=partialRectangle;connectable=0;fillColor=none;top=0;left=0;bottom=0;right=0;align=left;spacingLeft=6;fontStyle=5;overflow=hidden;whiteSpace=wrap;html=1;" parent="bdTvPmMyvIndACcMK4d0-205" vertex="1">
          <mxGeometry x="30" width="150" height="30" as="geometry">
            <mxRectangle width="150" height="30" as="alternateBounds" />
          </mxGeometry>
        </mxCell>
        <mxCell id="bdTvPmMyvIndACcMK4d0-375" value="" style="shape=tableRow;horizontal=0;startSize=0;swimlaneHead=0;swimlaneBody=0;fillColor=none;collapsible=0;dropTarget=0;points=[[0,0.5],[1,0.5]];portConstraint=eastwest;top=0;left=0;right=0;bottom=0;" parent="bdTvPmMyvIndACcMK4d0-204" vertex="1">
          <mxGeometry y="60" width="180" height="30" as="geometry" />
        </mxCell>
        <mxCell id="bdTvPmMyvIndACcMK4d0-376" value="" style="shape=partialRectangle;connectable=0;fillColor=none;top=0;left=0;bottom=0;right=0;editable=1;overflow=hidden;whiteSpace=wrap;html=1;" parent="bdTvPmMyvIndACcMK4d0-375" vertex="1">
          <mxGeometry width="30" height="30" as="geometry">
            <mxRectangle width="30" height="30" as="alternateBounds" />
          </mxGeometry>
        </mxCell>
        <mxCell id="bdTvPmMyvIndACcMK4d0-377" value="fName" style="shape=partialRectangle;connectable=0;fillColor=none;top=0;left=0;bottom=0;right=0;align=left;spacingLeft=6;overflow=hidden;whiteSpace=wrap;html=1;" parent="bdTvPmMyvIndACcMK4d0-375" vertex="1">
          <mxGeometry x="30" width="150" height="30" as="geometry">
            <mxRectangle width="150" height="30" as="alternateBounds" />
          </mxGeometry>
        </mxCell>
        <mxCell id="bdTvPmMyvIndACcMK4d0-208" value="" style="shape=tableRow;horizontal=0;startSize=0;swimlaneHead=0;swimlaneBody=0;fillColor=none;collapsible=0;dropTarget=0;points=[[0,0.5],[1,0.5]];portConstraint=eastwest;top=0;left=0;right=0;bottom=0;" parent="bdTvPmMyvIndACcMK4d0-204" vertex="1">
          <mxGeometry y="90" width="180" height="30" as="geometry" />
        </mxCell>
        <mxCell id="bdTvPmMyvIndACcMK4d0-209" value="" style="shape=partialRectangle;connectable=0;fillColor=none;top=0;left=0;bottom=0;right=0;editable=1;overflow=hidden;whiteSpace=wrap;html=1;" parent="bdTvPmMyvIndACcMK4d0-208" vertex="1">
          <mxGeometry width="30" height="30" as="geometry">
            <mxRectangle width="30" height="30" as="alternateBounds" />
          </mxGeometry>
        </mxCell>
        <mxCell id="bdTvPmMyvIndACcMK4d0-210" value="lName" style="shape=partialRectangle;connectable=0;fillColor=none;top=0;left=0;bottom=0;right=0;align=left;spacingLeft=6;overflow=hidden;whiteSpace=wrap;html=1;" parent="bdTvPmMyvIndACcMK4d0-208" vertex="1">
          <mxGeometry x="30" width="150" height="30" as="geometry">
            <mxRectangle width="150" height="30" as="alternateBounds" />
          </mxGeometry>
        </mxCell>
        <mxCell id="bdTvPmMyvIndACcMK4d0-211" value="" style="shape=tableRow;horizontal=0;startSize=0;swimlaneHead=0;swimlaneBody=0;fillColor=none;collapsible=0;dropTarget=0;points=[[0,0.5],[1,0.5]];portConstraint=eastwest;top=0;left=0;right=0;bottom=0;" parent="bdTvPmMyvIndACcMK4d0-204" vertex="1">
          <mxGeometry y="120" width="180" height="30" as="geometry" />
        </mxCell>
        <mxCell id="bdTvPmMyvIndACcMK4d0-212" value="" style="shape=partialRectangle;connectable=0;fillColor=none;top=0;left=0;bottom=0;right=0;editable=1;overflow=hidden;whiteSpace=wrap;html=1;" parent="bdTvPmMyvIndACcMK4d0-211" vertex="1">
          <mxGeometry width="30" height="30" as="geometry">
            <mxRectangle width="30" height="30" as="alternateBounds" />
          </mxGeometry>
        </mxCell>
        <mxCell id="bdTvPmMyvIndACcMK4d0-213" value="adress" style="shape=partialRectangle;connectable=0;fillColor=none;top=0;left=0;bottom=0;right=0;align=left;spacingLeft=6;overflow=hidden;whiteSpace=wrap;html=1;" parent="bdTvPmMyvIndACcMK4d0-211" vertex="1">
          <mxGeometry x="30" width="150" height="30" as="geometry">
            <mxRectangle width="150" height="30" as="alternateBounds" />
          </mxGeometry>
        </mxCell>
        <mxCell id="bdTvPmMyvIndACcMK4d0-214" value="" style="shape=tableRow;horizontal=0;startSize=0;swimlaneHead=0;swimlaneBody=0;fillColor=none;collapsible=0;dropTarget=0;points=[[0,0.5],[1,0.5]];portConstraint=eastwest;top=0;left=0;right=0;bottom=0;" parent="bdTvPmMyvIndACcMK4d0-204" vertex="1">
          <mxGeometry y="150" width="180" height="30" as="geometry" />
        </mxCell>
        <mxCell id="bdTvPmMyvIndACcMK4d0-215" value="" style="shape=partialRectangle;connectable=0;fillColor=none;top=0;left=0;bottom=0;right=0;editable=1;overflow=hidden;whiteSpace=wrap;html=1;" parent="bdTvPmMyvIndACcMK4d0-214" vertex="1">
          <mxGeometry width="30" height="30" as="geometry">
            <mxRectangle width="30" height="30" as="alternateBounds" />
          </mxGeometry>
        </mxCell>
        <mxCell id="bdTvPmMyvIndACcMK4d0-216" value="phoneNum" style="shape=partialRectangle;connectable=0;fillColor=none;top=0;left=0;bottom=0;right=0;align=left;spacingLeft=6;overflow=hidden;whiteSpace=wrap;html=1;" parent="bdTvPmMyvIndACcMK4d0-214" vertex="1">
          <mxGeometry x="30" width="150" height="30" as="geometry">
            <mxRectangle width="150" height="30" as="alternateBounds" />
          </mxGeometry>
        </mxCell>
        <mxCell id="bdTvPmMyvIndACcMK4d0-217" value="patient" style="shape=table;startSize=30;container=1;collapsible=1;childLayout=tableLayout;fixedRows=1;rowLines=0;fontStyle=1;align=center;resizeLast=1;html=1;" parent="1" vertex="1">
          <mxGeometry x="1310" y="635" width="180" height="210" as="geometry" />
        </mxCell>
        <mxCell id="bdTvPmMyvIndACcMK4d0-218" value="" style="shape=tableRow;horizontal=0;startSize=0;swimlaneHead=0;swimlaneBody=0;fillColor=none;collapsible=0;dropTarget=0;points=[[0,0.5],[1,0.5]];portConstraint=eastwest;top=0;left=0;right=0;bottom=1;" parent="bdTvPmMyvIndACcMK4d0-217" vertex="1">
          <mxGeometry y="30" width="180" height="30" as="geometry" />
        </mxCell>
        <mxCell id="bdTvPmMyvIndACcMK4d0-219" value="PK" style="shape=partialRectangle;connectable=0;fillColor=none;top=0;left=0;bottom=0;right=0;fontStyle=1;overflow=hidden;whiteSpace=wrap;html=1;" parent="bdTvPmMyvIndACcMK4d0-218" vertex="1">
          <mxGeometry width="30" height="30" as="geometry">
            <mxRectangle width="30" height="30" as="alternateBounds" />
          </mxGeometry>
        </mxCell>
        <mxCell id="bdTvPmMyvIndACcMK4d0-220" value="&lt;span style=&quot;font-size: 11pt; line-height: 15.6933px; font-family: Aptos, sans-serif;&quot; lang=&quot;EN-AU&quot;&gt;medicareNo&lt;/span&gt;&lt;span style=&quot;font-size: medium; font-weight: 400;&quot;&gt;&lt;/span&gt;" style="shape=partialRectangle;connectable=0;fillColor=none;top=0;left=0;bottom=0;right=0;align=left;spacingLeft=6;fontStyle=5;overflow=hidden;whiteSpace=wrap;html=1;" parent="bdTvPmMyvIndACcMK4d0-218" vertex="1">
          <mxGeometry x="30" width="150" height="30" as="geometry">
            <mxRectangle width="150" height="30" as="alternateBounds" />
          </mxGeometry>
        </mxCell>
        <mxCell id="bdTvPmMyvIndACcMK4d0-221" value="" style="shape=tableRow;horizontal=0;startSize=0;swimlaneHead=0;swimlaneBody=0;fillColor=none;collapsible=0;dropTarget=0;points=[[0,0.5],[1,0.5]];portConstraint=eastwest;top=0;left=0;right=0;bottom=0;" parent="bdTvPmMyvIndACcMK4d0-217" vertex="1">
          <mxGeometry y="60" width="180" height="30" as="geometry" />
        </mxCell>
        <mxCell id="bdTvPmMyvIndACcMK4d0-222" value="FK" style="shape=partialRectangle;connectable=0;fillColor=none;top=0;left=0;bottom=0;right=0;editable=1;overflow=hidden;whiteSpace=wrap;html=1;" parent="bdTvPmMyvIndACcMK4d0-221" vertex="1">
          <mxGeometry width="30" height="30" as="geometry">
            <mxRectangle width="30" height="30" as="alternateBounds" />
          </mxGeometry>
        </mxCell>
        <mxCell id="bdTvPmMyvIndACcMK4d0-223" value="&lt;span style=&quot;font-size: 11pt; line-height: 15.6933px; font-family: Aptos, sans-serif;&quot; lang=&quot;EN-AU&quot;&gt;clientNo&lt;/span&gt;&lt;span style=&quot;font-size: medium;&quot;&gt;&lt;/span&gt;" style="shape=partialRectangle;connectable=0;fillColor=none;top=0;left=0;bottom=0;right=0;align=left;spacingLeft=6;overflow=hidden;whiteSpace=wrap;html=1;" parent="bdTvPmMyvIndACcMK4d0-221" vertex="1">
          <mxGeometry x="30" width="150" height="30" as="geometry">
            <mxRectangle width="150" height="30" as="alternateBounds" />
          </mxGeometry>
        </mxCell>
        <mxCell id="bdTvPmMyvIndACcMK4d0-224" value="" style="shape=tableRow;horizontal=0;startSize=0;swimlaneHead=0;swimlaneBody=0;fillColor=none;collapsible=0;dropTarget=0;points=[[0,0.5],[1,0.5]];portConstraint=eastwest;top=0;left=0;right=0;bottom=0;" parent="bdTvPmMyvIndACcMK4d0-217" vertex="1">
          <mxGeometry y="90" width="180" height="30" as="geometry" />
        </mxCell>
        <mxCell id="bdTvPmMyvIndACcMK4d0-225" value="" style="shape=partialRectangle;connectable=0;fillColor=none;top=0;left=0;bottom=0;right=0;editable=1;overflow=hidden;whiteSpace=wrap;html=1;" parent="bdTvPmMyvIndACcMK4d0-224" vertex="1">
          <mxGeometry width="30" height="30" as="geometry">
            <mxRectangle width="30" height="30" as="alternateBounds" />
          </mxGeometry>
        </mxCell>
        <mxCell id="bdTvPmMyvIndACcMK4d0-226" value="&lt;span style=&quot;font-size: 11pt; line-height: 15.6933px; font-family: Aptos, sans-serif;&quot; lang=&quot;EN-AU&quot;&gt;fName&lt;/span&gt;&lt;span style=&quot;font-size: medium;&quot;&gt;&lt;/span&gt;" style="shape=partialRectangle;connectable=0;fillColor=none;top=0;left=0;bottom=0;right=0;align=left;spacingLeft=6;overflow=hidden;whiteSpace=wrap;html=1;" parent="bdTvPmMyvIndACcMK4d0-224" vertex="1">
          <mxGeometry x="30" width="150" height="30" as="geometry">
            <mxRectangle width="150" height="30" as="alternateBounds" />
          </mxGeometry>
        </mxCell>
        <mxCell id="bdTvPmMyvIndACcMK4d0-555" value="" style="shape=tableRow;horizontal=0;startSize=0;swimlaneHead=0;swimlaneBody=0;fillColor=none;collapsible=0;dropTarget=0;points=[[0,0.5],[1,0.5]];portConstraint=eastwest;top=0;left=0;right=0;bottom=0;" parent="bdTvPmMyvIndACcMK4d0-217" vertex="1">
          <mxGeometry y="120" width="180" height="30" as="geometry" />
        </mxCell>
        <mxCell id="bdTvPmMyvIndACcMK4d0-556" value="" style="shape=partialRectangle;connectable=0;fillColor=none;top=0;left=0;bottom=0;right=0;editable=1;overflow=hidden;whiteSpace=wrap;html=1;" parent="bdTvPmMyvIndACcMK4d0-555" vertex="1">
          <mxGeometry width="30" height="30" as="geometry">
            <mxRectangle width="30" height="30" as="alternateBounds" />
          </mxGeometry>
        </mxCell>
        <mxCell id="bdTvPmMyvIndACcMK4d0-557" value="&lt;span style=&quot;font-size: 11pt; line-height: 15.6933px; font-family: Aptos, sans-serif;&quot; lang=&quot;EN-AU&quot;&gt;l&lt;/span&gt;&lt;span style=&quot;font-size: medium;&quot;&gt;&lt;/span&gt;&lt;span style=&quot;font-size: 11pt; line-height: 15.6933px; font-family: Aptos, sans-serif;&quot; lang=&quot;EN-AU&quot;&gt;Name&lt;/span&gt;&lt;span style=&quot;font-size: medium;&quot;&gt;&lt;/span&gt;" style="shape=partialRectangle;connectable=0;fillColor=none;top=0;left=0;bottom=0;right=0;align=left;spacingLeft=6;overflow=hidden;whiteSpace=wrap;html=1;" parent="bdTvPmMyvIndACcMK4d0-555" vertex="1">
          <mxGeometry x="30" width="150" height="30" as="geometry">
            <mxRectangle width="150" height="30" as="alternateBounds" />
          </mxGeometry>
        </mxCell>
        <mxCell id="bdTvPmMyvIndACcMK4d0-558" value="" style="shape=tableRow;horizontal=0;startSize=0;swimlaneHead=0;swimlaneBody=0;fillColor=none;collapsible=0;dropTarget=0;points=[[0,0.5],[1,0.5]];portConstraint=eastwest;top=0;left=0;right=0;bottom=0;" parent="bdTvPmMyvIndACcMK4d0-217" vertex="1">
          <mxGeometry y="150" width="180" height="30" as="geometry" />
        </mxCell>
        <mxCell id="bdTvPmMyvIndACcMK4d0-559" value="" style="shape=partialRectangle;connectable=0;fillColor=none;top=0;left=0;bottom=0;right=0;editable=1;overflow=hidden;whiteSpace=wrap;html=1;" parent="bdTvPmMyvIndACcMK4d0-558" vertex="1">
          <mxGeometry width="30" height="30" as="geometry">
            <mxRectangle width="30" height="30" as="alternateBounds" />
          </mxGeometry>
        </mxCell>
        <mxCell id="bdTvPmMyvIndACcMK4d0-560" value="&lt;span style=&quot;font-size: 11pt; line-height: 15.6933px; font-family: Aptos, sans-serif;&quot; lang=&quot;EN-AU&quot;&gt;gender&lt;/span&gt;&lt;span style=&quot;font-size: medium;&quot;&gt;&lt;/span&gt;" style="shape=partialRectangle;connectable=0;fillColor=none;top=0;left=0;bottom=0;right=0;align=left;spacingLeft=6;overflow=hidden;whiteSpace=wrap;html=1;" parent="bdTvPmMyvIndACcMK4d0-558" vertex="1">
          <mxGeometry x="30" width="150" height="30" as="geometry">
            <mxRectangle width="150" height="30" as="alternateBounds" />
          </mxGeometry>
        </mxCell>
        <mxCell id="bdTvPmMyvIndACcMK4d0-561" value="" style="shape=tableRow;horizontal=0;startSize=0;swimlaneHead=0;swimlaneBody=0;fillColor=none;collapsible=0;dropTarget=0;points=[[0,0.5],[1,0.5]];portConstraint=eastwest;top=0;left=0;right=0;bottom=0;" parent="bdTvPmMyvIndACcMK4d0-217" vertex="1">
          <mxGeometry y="180" width="180" height="30" as="geometry" />
        </mxCell>
        <mxCell id="bdTvPmMyvIndACcMK4d0-562" value="" style="shape=partialRectangle;connectable=0;fillColor=none;top=0;left=0;bottom=0;right=0;editable=1;overflow=hidden;whiteSpace=wrap;html=1;" parent="bdTvPmMyvIndACcMK4d0-561" vertex="1">
          <mxGeometry width="30" height="30" as="geometry">
            <mxRectangle width="30" height="30" as="alternateBounds" />
          </mxGeometry>
        </mxCell>
        <mxCell id="bdTvPmMyvIndACcMK4d0-563" value="&lt;span style=&quot;font-size: 11pt; line-height: 15.6933px; font-family: Aptos, sans-serif;&quot; lang=&quot;EN-AU&quot;&gt;birthDate&lt;/span&gt;&lt;span style=&quot;font-size: medium;&quot;&gt;&lt;/span&gt;&lt;br&gt;&lt;span style=&quot;font-size: medium;&quot;&gt;&lt;/span&gt;" style="shape=partialRectangle;connectable=0;fillColor=none;top=0;left=0;bottom=0;right=0;align=left;spacingLeft=6;overflow=hidden;whiteSpace=wrap;html=1;" parent="bdTvPmMyvIndACcMK4d0-561" vertex="1">
          <mxGeometry x="30" width="150" height="30" as="geometry">
            <mxRectangle width="150" height="30" as="alternateBounds" />
          </mxGeometry>
        </mxCell>
        <mxCell id="bdTvPmMyvIndACcMK4d0-230" value="bill" style="shape=table;startSize=30;container=1;collapsible=1;childLayout=tableLayout;fixedRows=1;rowLines=0;fontStyle=1;align=center;resizeLast=1;html=1;" parent="1" vertex="1">
          <mxGeometry x="503" y="855" width="180" height="120" as="geometry" />
        </mxCell>
        <mxCell id="bdTvPmMyvIndACcMK4d0-231" value="" style="shape=tableRow;horizontal=0;startSize=0;swimlaneHead=0;swimlaneBody=0;fillColor=none;collapsible=0;dropTarget=0;points=[[0,0.5],[1,0.5]];portConstraint=eastwest;top=0;left=0;right=0;bottom=1;" parent="bdTvPmMyvIndACcMK4d0-230" vertex="1">
          <mxGeometry y="30" width="180" height="30" as="geometry" />
        </mxCell>
        <mxCell id="bdTvPmMyvIndACcMK4d0-232" value="PK" style="shape=partialRectangle;connectable=0;fillColor=none;top=0;left=0;bottom=0;right=0;fontStyle=1;overflow=hidden;whiteSpace=wrap;html=1;" parent="bdTvPmMyvIndACcMK4d0-231" vertex="1">
          <mxGeometry width="30" height="30" as="geometry">
            <mxRectangle width="30" height="30" as="alternateBounds" />
          </mxGeometry>
        </mxCell>
        <mxCell id="bdTvPmMyvIndACcMK4d0-233" value="&lt;span style=&quot;font-size: 11pt; line-height: 15.6933px; font-family: Aptos, sans-serif;&quot; lang=&quot;EN-AU&quot;&gt;billNo&lt;/span&gt;&lt;span style=&quot;font-size: medium; font-weight: 400;&quot;&gt;&lt;/span&gt;" style="shape=partialRectangle;connectable=0;fillColor=none;top=0;left=0;bottom=0;right=0;align=left;spacingLeft=6;fontStyle=5;overflow=hidden;whiteSpace=wrap;html=1;" parent="bdTvPmMyvIndACcMK4d0-231" vertex="1">
          <mxGeometry x="30" width="150" height="30" as="geometry">
            <mxRectangle width="150" height="30" as="alternateBounds" />
          </mxGeometry>
        </mxCell>
        <mxCell id="bdTvPmMyvIndACcMK4d0-234" value="" style="shape=tableRow;horizontal=0;startSize=0;swimlaneHead=0;swimlaneBody=0;fillColor=none;collapsible=0;dropTarget=0;points=[[0,0.5],[1,0.5]];portConstraint=eastwest;top=0;left=0;right=0;bottom=0;" parent="bdTvPmMyvIndACcMK4d0-230" vertex="1">
          <mxGeometry y="60" width="180" height="30" as="geometry" />
        </mxCell>
        <mxCell id="bdTvPmMyvIndACcMK4d0-235" value="FK" style="shape=partialRectangle;connectable=0;fillColor=none;top=0;left=0;bottom=0;right=0;editable=1;overflow=hidden;whiteSpace=wrap;html=1;" parent="bdTvPmMyvIndACcMK4d0-234" vertex="1">
          <mxGeometry width="30" height="30" as="geometry">
            <mxRectangle width="30" height="30" as="alternateBounds" />
          </mxGeometry>
        </mxCell>
        <mxCell id="bdTvPmMyvIndACcMK4d0-236" value="&lt;span style=&quot;font-family: Aptos, sans-serif; font-size: 14.6667px;&quot;&gt;clientNo&lt;/span&gt;" style="shape=partialRectangle;connectable=0;fillColor=none;top=0;left=0;bottom=0;right=0;align=left;spacingLeft=6;overflow=hidden;whiteSpace=wrap;html=1;" parent="bdTvPmMyvIndACcMK4d0-234" vertex="1">
          <mxGeometry x="30" width="150" height="30" as="geometry">
            <mxRectangle width="150" height="30" as="alternateBounds" />
          </mxGeometry>
        </mxCell>
        <mxCell id="bdTvPmMyvIndACcMK4d0-237" value="" style="shape=tableRow;horizontal=0;startSize=0;swimlaneHead=0;swimlaneBody=0;fillColor=none;collapsible=0;dropTarget=0;points=[[0,0.5],[1,0.5]];portConstraint=eastwest;top=0;left=0;right=0;bottom=0;" parent="bdTvPmMyvIndACcMK4d0-230" vertex="1">
          <mxGeometry y="90" width="180" height="30" as="geometry" />
        </mxCell>
        <mxCell id="bdTvPmMyvIndACcMK4d0-238" value="" style="shape=partialRectangle;connectable=0;fillColor=none;top=0;left=0;bottom=0;right=0;editable=1;overflow=hidden;whiteSpace=wrap;html=1;" parent="bdTvPmMyvIndACcMK4d0-237" vertex="1">
          <mxGeometry width="30" height="30" as="geometry">
            <mxRectangle width="30" height="30" as="alternateBounds" />
          </mxGeometry>
        </mxCell>
        <mxCell id="bdTvPmMyvIndACcMK4d0-239" value="amount" style="shape=partialRectangle;connectable=0;fillColor=none;top=0;left=0;bottom=0;right=0;align=left;spacingLeft=6;overflow=hidden;whiteSpace=wrap;html=1;" parent="bdTvPmMyvIndACcMK4d0-237" vertex="1">
          <mxGeometry x="30" width="150" height="30" as="geometry">
            <mxRectangle width="150" height="30" as="alternateBounds" />
          </mxGeometry>
        </mxCell>
        <mxCell id="bdTvPmMyvIndACcMK4d0-248" value="appointment" style="shape=table;startSize=30;container=1;collapsible=1;childLayout=tableLayout;fixedRows=1;rowLines=0;fontStyle=1;align=center;resizeLast=1;html=1;" parent="1" vertex="1">
          <mxGeometry x="503" y="605" width="180" height="210" as="geometry" />
        </mxCell>
        <mxCell id="bdTvPmMyvIndACcMK4d0-249" value="" style="shape=tableRow;horizontal=0;startSize=0;swimlaneHead=0;swimlaneBody=0;fillColor=none;collapsible=0;dropTarget=0;points=[[0,0.5],[1,0.5]];portConstraint=eastwest;top=0;left=0;right=0;bottom=1;" parent="bdTvPmMyvIndACcMK4d0-248" vertex="1">
          <mxGeometry y="30" width="180" height="30" as="geometry" />
        </mxCell>
        <mxCell id="bdTvPmMyvIndACcMK4d0-250" value="PK" style="shape=partialRectangle;connectable=0;fillColor=none;top=0;left=0;bottom=0;right=0;fontStyle=1;overflow=hidden;whiteSpace=wrap;html=1;" parent="bdTvPmMyvIndACcMK4d0-249" vertex="1">
          <mxGeometry width="30" height="30" as="geometry">
            <mxRectangle width="30" height="30" as="alternateBounds" />
          </mxGeometry>
        </mxCell>
        <mxCell id="bdTvPmMyvIndACcMK4d0-251" value="&lt;span style=&quot;font-size: 11pt; line-height: 15.6933px; font-family: Aptos, sans-serif;&quot; lang=&quot;EN-AU&quot;&gt;appointmentNo&lt;/span&gt;&lt;span style=&quot;font-size: medium; font-weight: 400;&quot;&gt;&lt;/span&gt;" style="shape=partialRectangle;connectable=0;fillColor=none;top=0;left=0;bottom=0;right=0;align=left;spacingLeft=6;fontStyle=5;overflow=hidden;whiteSpace=wrap;html=1;" parent="bdTvPmMyvIndACcMK4d0-249" vertex="1">
          <mxGeometry x="30" width="150" height="30" as="geometry">
            <mxRectangle width="150" height="30" as="alternateBounds" />
          </mxGeometry>
        </mxCell>
        <mxCell id="bdTvPmMyvIndACcMK4d0-252" value="" style="shape=tableRow;horizontal=0;startSize=0;swimlaneHead=0;swimlaneBody=0;fillColor=none;collapsible=0;dropTarget=0;points=[[0,0.5],[1,0.5]];portConstraint=eastwest;top=0;left=0;right=0;bottom=0;" parent="bdTvPmMyvIndACcMK4d0-248" vertex="1">
          <mxGeometry y="60" width="180" height="30" as="geometry" />
        </mxCell>
        <mxCell id="bdTvPmMyvIndACcMK4d0-253" value="FK1" style="shape=partialRectangle;connectable=0;fillColor=none;top=0;left=0;bottom=0;right=0;editable=1;overflow=hidden;whiteSpace=wrap;html=1;" parent="bdTvPmMyvIndACcMK4d0-252" vertex="1">
          <mxGeometry width="30" height="30" as="geometry">
            <mxRectangle width="30" height="30" as="alternateBounds" />
          </mxGeometry>
        </mxCell>
        <mxCell id="bdTvPmMyvIndACcMK4d0-254" value="&lt;span style=&quot;font-family: Aptos, sans-serif; font-size: 14.6667px;&quot;&gt;medicareNo&lt;/span&gt;&lt;br&gt;&lt;span style=&quot;font-size: medium;&quot;&gt;&lt;/span&gt;" style="shape=partialRectangle;connectable=0;fillColor=none;top=0;left=0;bottom=0;right=0;align=left;spacingLeft=6;overflow=hidden;whiteSpace=wrap;html=1;" parent="bdTvPmMyvIndACcMK4d0-252" vertex="1">
          <mxGeometry x="30" width="150" height="30" as="geometry">
            <mxRectangle width="150" height="30" as="alternateBounds" />
          </mxGeometry>
        </mxCell>
        <mxCell id="bdTvPmMyvIndACcMK4d0-255" value="" style="shape=tableRow;horizontal=0;startSize=0;swimlaneHead=0;swimlaneBody=0;fillColor=none;collapsible=0;dropTarget=0;points=[[0,0.5],[1,0.5]];portConstraint=eastwest;top=0;left=0;right=0;bottom=0;" parent="bdTvPmMyvIndACcMK4d0-248" vertex="1">
          <mxGeometry y="90" width="180" height="30" as="geometry" />
        </mxCell>
        <mxCell id="bdTvPmMyvIndACcMK4d0-256" value="&lt;span style=&quot;color: rgb(0, 0, 0); font-family: Helvetica; font-size: 12px; font-style: normal; font-variant-ligatures: normal; font-variant-caps: normal; font-weight: 400; letter-spacing: normal; orphans: 2; text-align: center; text-indent: 0px; text-transform: none; widows: 2; word-spacing: 0px; -webkit-text-stroke-width: 0px; white-space: normal; background-color: rgb(251, 251, 251); text-decoration-thickness: initial; text-decoration-style: initial; text-decoration-color: initial; display: inline !important; float: none;&quot;&gt;FK2&lt;/span&gt;" style="shape=partialRectangle;connectable=0;fillColor=none;top=0;left=0;bottom=0;right=0;editable=1;overflow=hidden;whiteSpace=wrap;html=1;" parent="bdTvPmMyvIndACcMK4d0-255" vertex="1">
          <mxGeometry width="30" height="30" as="geometry">
            <mxRectangle width="30" height="30" as="alternateBounds" />
          </mxGeometry>
        </mxCell>
        <mxCell id="bdTvPmMyvIndACcMK4d0-257" value="&lt;span style=&quot;font-family: Aptos, sans-serif; font-size: 14.6667px;&quot;&gt;treatmentNo&lt;/span&gt;" style="shape=partialRectangle;connectable=0;fillColor=none;top=0;left=0;bottom=0;right=0;align=left;spacingLeft=6;overflow=hidden;whiteSpace=wrap;html=1;" parent="bdTvPmMyvIndACcMK4d0-255" vertex="1">
          <mxGeometry x="30" width="150" height="30" as="geometry">
            <mxRectangle width="150" height="30" as="alternateBounds" />
          </mxGeometry>
        </mxCell>
        <mxCell id="bdTvPmMyvIndACcMK4d0-258" value="" style="shape=tableRow;horizontal=0;startSize=0;swimlaneHead=0;swimlaneBody=0;fillColor=none;collapsible=0;dropTarget=0;points=[[0,0.5],[1,0.5]];portConstraint=eastwest;top=0;left=0;right=0;bottom=0;" parent="bdTvPmMyvIndACcMK4d0-248" vertex="1">
          <mxGeometry y="120" width="180" height="30" as="geometry" />
        </mxCell>
        <mxCell id="bdTvPmMyvIndACcMK4d0-259" value="&lt;span style=&quot;color: rgb(0, 0, 0); font-family: Helvetica; font-size: 12px; font-style: normal; font-variant-ligatures: normal; font-variant-caps: normal; font-weight: 400; letter-spacing: normal; orphans: 2; text-align: center; text-indent: 0px; text-transform: none; widows: 2; word-spacing: 0px; -webkit-text-stroke-width: 0px; white-space: normal; background-color: rgb(251, 251, 251); text-decoration-thickness: initial; text-decoration-style: initial; text-decoration-color: initial; display: inline !important; float: none;&quot;&gt;FK3&lt;/span&gt;" style="shape=partialRectangle;connectable=0;fillColor=none;top=0;left=0;bottom=0;right=0;editable=1;overflow=hidden;whiteSpace=wrap;html=1;" parent="bdTvPmMyvIndACcMK4d0-258" vertex="1">
          <mxGeometry width="30" height="30" as="geometry">
            <mxRectangle width="30" height="30" as="alternateBounds" />
          </mxGeometry>
        </mxCell>
        <mxCell id="bdTvPmMyvIndACcMK4d0-260" value="&lt;a style=&quot;font-size: medium;&quot; name=&quot;OLE_LINK65&quot;&gt;&lt;span style=&quot;font-size: 11pt; line-height: 15.6933px; font-family: Aptos, sans-serif;&quot; lang=&quot;EN-AU&quot;&gt;surgeonID&lt;/span&gt;&lt;/a&gt;&lt;br&gt;&lt;span style=&quot;font-size: medium;&quot;&gt;&lt;/span&gt;" style="shape=partialRectangle;connectable=0;fillColor=none;top=0;left=0;bottom=0;right=0;align=left;spacingLeft=6;overflow=hidden;whiteSpace=wrap;html=1;" parent="bdTvPmMyvIndACcMK4d0-258" vertex="1">
          <mxGeometry x="30" width="150" height="30" as="geometry">
            <mxRectangle width="150" height="30" as="alternateBounds" />
          </mxGeometry>
        </mxCell>
        <mxCell id="bdTvPmMyvIndACcMK4d0-261" value="" style="shape=tableRow;horizontal=0;startSize=0;swimlaneHead=0;swimlaneBody=0;fillColor=none;collapsible=0;dropTarget=0;points=[[0,0.5],[1,0.5]];portConstraint=eastwest;top=0;left=0;right=0;bottom=0;" parent="bdTvPmMyvIndACcMK4d0-248" vertex="1">
          <mxGeometry y="150" width="180" height="30" as="geometry" />
        </mxCell>
        <mxCell id="bdTvPmMyvIndACcMK4d0-262" value="" style="shape=partialRectangle;connectable=0;fillColor=none;top=0;left=0;bottom=0;right=0;editable=1;overflow=hidden;whiteSpace=wrap;html=1;" parent="bdTvPmMyvIndACcMK4d0-261" vertex="1">
          <mxGeometry width="30" height="30" as="geometry">
            <mxRectangle width="30" height="30" as="alternateBounds" />
          </mxGeometry>
        </mxCell>
        <mxCell id="bdTvPmMyvIndACcMK4d0-263" value="&lt;a style=&quot;font-size: medium;&quot; name=&quot;OLE_LINK65&quot;&gt;&lt;span style=&quot;font-size: 11pt; line-height: 15.6933px; font-family: Aptos, sans-serif;&quot; lang=&quot;EN-AU&quot;&gt;startDate&lt;/span&gt;&lt;/a&gt;" style="shape=partialRectangle;connectable=0;fillColor=none;top=0;left=0;bottom=0;right=0;align=left;spacingLeft=6;overflow=hidden;whiteSpace=wrap;html=1;" parent="bdTvPmMyvIndACcMK4d0-261" vertex="1">
          <mxGeometry x="30" width="150" height="30" as="geometry">
            <mxRectangle width="150" height="30" as="alternateBounds" />
          </mxGeometry>
        </mxCell>
        <mxCell id="bdTvPmMyvIndACcMK4d0-506" value="" style="shape=tableRow;horizontal=0;startSize=0;swimlaneHead=0;swimlaneBody=0;fillColor=none;collapsible=0;dropTarget=0;points=[[0,0.5],[1,0.5]];portConstraint=eastwest;top=0;left=0;right=0;bottom=0;" parent="bdTvPmMyvIndACcMK4d0-248" vertex="1">
          <mxGeometry y="180" width="180" height="30" as="geometry" />
        </mxCell>
        <mxCell id="bdTvPmMyvIndACcMK4d0-507" value="" style="shape=partialRectangle;connectable=0;fillColor=none;top=0;left=0;bottom=0;right=0;editable=1;overflow=hidden;whiteSpace=wrap;html=1;" parent="bdTvPmMyvIndACcMK4d0-506" vertex="1">
          <mxGeometry width="30" height="30" as="geometry">
            <mxRectangle width="30" height="30" as="alternateBounds" />
          </mxGeometry>
        </mxCell>
        <mxCell id="bdTvPmMyvIndACcMK4d0-508" value="&lt;a style=&quot;font-size: medium;&quot; name=&quot;OLE_LINK64&quot;&gt;&lt;/a&gt;&lt;a style=&quot;font-size: medium;&quot; name=&quot;OLE_LINK65&quot;&gt;&lt;span style=&quot;font-size: 11pt; line-height: 15.6933px; font-family: Aptos, sans-serif;&quot; lang=&quot;EN-AU&quot;&gt;startTime&lt;/span&gt;&lt;/a&gt;&lt;br&gt;&lt;span style=&quot;font-size: medium;&quot;&gt;&lt;/span&gt;" style="shape=partialRectangle;connectable=0;fillColor=none;top=0;left=0;bottom=0;right=0;align=left;spacingLeft=6;overflow=hidden;whiteSpace=wrap;html=1;" parent="bdTvPmMyvIndACcMK4d0-506" vertex="1">
          <mxGeometry x="30" width="150" height="30" as="geometry">
            <mxRectangle width="150" height="30" as="alternateBounds" />
          </mxGeometry>
        </mxCell>
        <mxCell id="bdTvPmMyvIndACcMK4d0-264" style="edgeStyle=orthogonalEdgeStyle;rounded=0;orthogonalLoop=1;jettySize=auto;html=1;entryX=1;entryY=0.5;entryDx=0;entryDy=0;exitX=0;exitY=0.5;exitDx=0;exitDy=0;endArrow=none;endFill=0;" parent="1" source="bdTvPmMyvIndACcMK4d0-221" target="bdTvPmMyvIndACcMK4d0-350" edge="1">
          <mxGeometry relative="1" as="geometry">
            <mxPoint x="543" y="775" as="sourcePoint" />
          </mxGeometry>
        </mxCell>
        <mxCell id="bdTvPmMyvIndACcMK4d0-266" value="service" style="shape=table;startSize=30;container=1;collapsible=1;childLayout=tableLayout;fixedRows=1;rowLines=0;fontStyle=1;align=center;resizeLast=1;html=1;" parent="1" vertex="1">
          <mxGeometry x="503" y="355" width="180" height="150" as="geometry" />
        </mxCell>
        <mxCell id="bdTvPmMyvIndACcMK4d0-267" value="" style="shape=tableRow;horizontal=0;startSize=0;swimlaneHead=0;swimlaneBody=0;fillColor=none;collapsible=0;dropTarget=0;points=[[0,0.5],[1,0.5]];portConstraint=eastwest;top=0;left=0;right=0;bottom=1;" parent="bdTvPmMyvIndACcMK4d0-266" vertex="1">
          <mxGeometry y="30" width="180" height="30" as="geometry" />
        </mxCell>
        <mxCell id="bdTvPmMyvIndACcMK4d0-268" value="PK" style="shape=partialRectangle;connectable=0;fillColor=none;top=0;left=0;bottom=0;right=0;fontStyle=1;overflow=hidden;whiteSpace=wrap;html=1;" parent="bdTvPmMyvIndACcMK4d0-267" vertex="1">
          <mxGeometry width="30" height="30" as="geometry">
            <mxRectangle width="30" height="30" as="alternateBounds" />
          </mxGeometry>
        </mxCell>
        <mxCell id="bdTvPmMyvIndACcMK4d0-269" value="&lt;span style=&quot;font-size: 11pt; line-height: 15.6933px; font-family: Aptos, sans-serif;&quot; lang=&quot;EN-AU&quot;&gt;prescribedCode&lt;/span&gt;&lt;span style=&quot;font-size: medium; font-weight: 400;&quot;&gt;&lt;/span&gt;" style="shape=partialRectangle;connectable=0;fillColor=none;top=0;left=0;bottom=0;right=0;align=left;spacingLeft=6;fontStyle=5;overflow=hidden;whiteSpace=wrap;html=1;" parent="bdTvPmMyvIndACcMK4d0-267" vertex="1">
          <mxGeometry x="30" width="150" height="30" as="geometry">
            <mxRectangle width="150" height="30" as="alternateBounds" />
          </mxGeometry>
        </mxCell>
        <mxCell id="bdTvPmMyvIndACcMK4d0-270" value="" style="shape=tableRow;horizontal=0;startSize=0;swimlaneHead=0;swimlaneBody=0;fillColor=none;collapsible=0;dropTarget=0;points=[[0,0.5],[1,0.5]];portConstraint=eastwest;top=0;left=0;right=0;bottom=0;" parent="bdTvPmMyvIndACcMK4d0-266" vertex="1">
          <mxGeometry y="60" width="180" height="30" as="geometry" />
        </mxCell>
        <mxCell id="bdTvPmMyvIndACcMK4d0-271" value="" style="shape=partialRectangle;connectable=0;fillColor=none;top=0;left=0;bottom=0;right=0;editable=1;overflow=hidden;whiteSpace=wrap;html=1;" parent="bdTvPmMyvIndACcMK4d0-270" vertex="1">
          <mxGeometry width="30" height="30" as="geometry">
            <mxRectangle width="30" height="30" as="alternateBounds" />
          </mxGeometry>
        </mxCell>
        <mxCell id="bdTvPmMyvIndACcMK4d0-272" value="&lt;span style=&quot;font-family: Aptos, sans-serif; font-size: 14.6667px;&quot;&gt;description&lt;/span&gt;" style="shape=partialRectangle;connectable=0;fillColor=none;top=0;left=0;bottom=0;right=0;align=left;spacingLeft=6;overflow=hidden;whiteSpace=wrap;html=1;" parent="bdTvPmMyvIndACcMK4d0-270" vertex="1">
          <mxGeometry x="30" width="150" height="30" as="geometry">
            <mxRectangle width="150" height="30" as="alternateBounds" />
          </mxGeometry>
        </mxCell>
        <mxCell id="bdTvPmMyvIndACcMK4d0-273" value="" style="shape=tableRow;horizontal=0;startSize=0;swimlaneHead=0;swimlaneBody=0;fillColor=none;collapsible=0;dropTarget=0;points=[[0,0.5],[1,0.5]];portConstraint=eastwest;top=0;left=0;right=0;bottom=0;" parent="bdTvPmMyvIndACcMK4d0-266" vertex="1">
          <mxGeometry y="90" width="180" height="30" as="geometry" />
        </mxCell>
        <mxCell id="bdTvPmMyvIndACcMK4d0-274" value="" style="shape=partialRectangle;connectable=0;fillColor=none;top=0;left=0;bottom=0;right=0;editable=1;overflow=hidden;whiteSpace=wrap;html=1;" parent="bdTvPmMyvIndACcMK4d0-273" vertex="1">
          <mxGeometry width="30" height="30" as="geometry">
            <mxRectangle width="30" height="30" as="alternateBounds" />
          </mxGeometry>
        </mxCell>
        <mxCell id="bdTvPmMyvIndACcMK4d0-275" value="&lt;span style=&quot;font-family: Aptos, sans-serif; font-size: 14.6667px;&quot;&gt;serviceFee&lt;/span&gt;" style="shape=partialRectangle;connectable=0;fillColor=none;top=0;left=0;bottom=0;right=0;align=left;spacingLeft=6;overflow=hidden;whiteSpace=wrap;html=1;" parent="bdTvPmMyvIndACcMK4d0-273" vertex="1">
          <mxGeometry x="30" width="150" height="30" as="geometry">
            <mxRectangle width="150" height="30" as="alternateBounds" />
          </mxGeometry>
        </mxCell>
        <mxCell id="bdTvPmMyvIndACcMK4d0-276" value="" style="shape=tableRow;horizontal=0;startSize=0;swimlaneHead=0;swimlaneBody=0;fillColor=none;collapsible=0;dropTarget=0;points=[[0,0.5],[1,0.5]];portConstraint=eastwest;top=0;left=0;right=0;bottom=0;" parent="bdTvPmMyvIndACcMK4d0-266" vertex="1">
          <mxGeometry y="120" width="180" height="30" as="geometry" />
        </mxCell>
        <mxCell id="bdTvPmMyvIndACcMK4d0-277" value="FK" style="shape=partialRectangle;connectable=0;fillColor=none;top=0;left=0;bottom=0;right=0;editable=1;overflow=hidden;whiteSpace=wrap;html=1;" parent="bdTvPmMyvIndACcMK4d0-276" vertex="1">
          <mxGeometry width="30" height="30" as="geometry">
            <mxRectangle width="30" height="30" as="alternateBounds" />
          </mxGeometry>
        </mxCell>
        <mxCell id="bdTvPmMyvIndACcMK4d0-278" value="&lt;span style=&quot;font-family: Aptos, sans-serif; font-size: 14.6667px;&quot;&gt;surgeonID&lt;/span&gt;" style="shape=partialRectangle;connectable=0;fillColor=none;top=0;left=0;bottom=0;right=0;align=left;spacingLeft=6;overflow=hidden;whiteSpace=wrap;html=1;" parent="bdTvPmMyvIndACcMK4d0-276" vertex="1">
          <mxGeometry x="30" width="150" height="30" as="geometry">
            <mxRectangle width="150" height="30" as="alternateBounds" />
          </mxGeometry>
        </mxCell>
        <mxCell id="bdTvPmMyvIndACcMK4d0-381" style="edgeStyle=orthogonalEdgeStyle;rounded=0;orthogonalLoop=1;jettySize=auto;html=1;endArrow=none;endFill=0;" parent="1" source="bdTvPmMyvIndACcMK4d0-279" target="bdTvPmMyvIndACcMK4d0-234" edge="1">
          <mxGeometry relative="1" as="geometry" />
        </mxCell>
        <mxCell id="bdTvPmMyvIndACcMK4d0-279" value="Invoices" style="shape=table;startSize=30;container=1;collapsible=1;childLayout=tableLayout;fixedRows=1;rowLines=0;fontStyle=1;align=center;resizeLast=1;html=1;" parent="1" vertex="1">
          <mxGeometry x="150" y="534.5" width="180" height="350" as="geometry" />
        </mxCell>
        <mxCell id="bdTvPmMyvIndACcMK4d0-280" value="" style="shape=tableRow;horizontal=0;startSize=0;swimlaneHead=0;swimlaneBody=0;fillColor=none;collapsible=0;dropTarget=0;points=[[0,0.5],[1,0.5]];portConstraint=eastwest;top=0;left=0;right=0;bottom=1;" parent="bdTvPmMyvIndACcMK4d0-279" vertex="1">
          <mxGeometry y="30" width="180" height="30" as="geometry" />
        </mxCell>
        <mxCell id="bdTvPmMyvIndACcMK4d0-281" value="PK" style="shape=partialRectangle;connectable=0;fillColor=none;top=0;left=0;bottom=0;right=0;fontStyle=1;overflow=hidden;whiteSpace=wrap;html=1;" parent="bdTvPmMyvIndACcMK4d0-280" vertex="1">
          <mxGeometry width="30" height="30" as="geometry">
            <mxRectangle width="30" height="30" as="alternateBounds" />
          </mxGeometry>
        </mxCell>
        <mxCell id="bdTvPmMyvIndACcMK4d0-282" value="&lt;span style=&quot;font-size: 11pt; line-height: 15.6933px; font-family: Aptos, sans-serif;&quot; lang=&quot;EN-AU&quot;&gt;invoiceNo&lt;/span&gt;&lt;span style=&quot;font-size: medium; font-weight: 400;&quot;&gt;&lt;/span&gt;" style="shape=partialRectangle;connectable=0;fillColor=none;top=0;left=0;bottom=0;right=0;align=left;spacingLeft=6;fontStyle=5;overflow=hidden;whiteSpace=wrap;html=1;" parent="bdTvPmMyvIndACcMK4d0-280" vertex="1">
          <mxGeometry x="30" width="150" height="30" as="geometry">
            <mxRectangle width="150" height="30" as="alternateBounds" />
          </mxGeometry>
        </mxCell>
        <mxCell id="bdTvPmMyvIndACcMK4d0-283" value="" style="shape=tableRow;horizontal=0;startSize=0;swimlaneHead=0;swimlaneBody=0;fillColor=none;collapsible=0;dropTarget=0;points=[[0,0.5],[1,0.5]];portConstraint=eastwest;top=0;left=0;right=0;bottom=0;" parent="bdTvPmMyvIndACcMK4d0-279" vertex="1">
          <mxGeometry y="60" width="180" height="30" as="geometry" />
        </mxCell>
        <mxCell id="bdTvPmMyvIndACcMK4d0-284" value="FK1" style="shape=partialRectangle;connectable=0;fillColor=none;top=0;left=0;bottom=0;right=0;editable=1;overflow=hidden;whiteSpace=wrap;html=1;" parent="bdTvPmMyvIndACcMK4d0-283" vertex="1">
          <mxGeometry width="30" height="30" as="geometry">
            <mxRectangle width="30" height="30" as="alternateBounds" />
          </mxGeometry>
        </mxCell>
        <mxCell id="bdTvPmMyvIndACcMK4d0-285" value="&lt;span style=&quot;font-size: 11pt; line-height: 15.6933px; font-family: Aptos, sans-serif;&quot; lang=&quot;EN-AU&quot;&gt;appointmentNo&lt;/span&gt;&lt;span style=&quot;font-size: medium;&quot;&gt;&lt;/span&gt;" style="shape=partialRectangle;connectable=0;fillColor=none;top=0;left=0;bottom=0;right=0;align=left;spacingLeft=6;overflow=hidden;whiteSpace=wrap;html=1;" parent="bdTvPmMyvIndACcMK4d0-283" vertex="1">
          <mxGeometry x="30" width="150" height="30" as="geometry">
            <mxRectangle width="150" height="30" as="alternateBounds" />
          </mxGeometry>
        </mxCell>
        <mxCell id="bdTvPmMyvIndACcMK4d0-286" value="" style="shape=tableRow;horizontal=0;startSize=0;swimlaneHead=0;swimlaneBody=0;fillColor=none;collapsible=0;dropTarget=0;points=[[0,0.5],[1,0.5]];portConstraint=eastwest;top=0;left=0;right=0;bottom=0;" parent="bdTvPmMyvIndACcMK4d0-279" vertex="1">
          <mxGeometry y="90" width="180" height="20" as="geometry" />
        </mxCell>
        <mxCell id="bdTvPmMyvIndACcMK4d0-287" value="FK2" style="shape=partialRectangle;connectable=0;fillColor=none;top=0;left=0;bottom=0;right=0;editable=1;overflow=hidden;whiteSpace=wrap;html=1;" parent="bdTvPmMyvIndACcMK4d0-286" vertex="1">
          <mxGeometry width="30" height="20" as="geometry">
            <mxRectangle width="30" height="20" as="alternateBounds" />
          </mxGeometry>
        </mxCell>
        <mxCell id="bdTvPmMyvIndACcMK4d0-288" value="&lt;span style=&quot;font-size: 11pt; line-height: 15.6933px; font-family: Aptos, sans-serif;&quot; lang=&quot;EN-AU&quot;&gt;billNo&lt;/span&gt;&lt;span style=&quot;font-size: medium;&quot;&gt;&lt;/span&gt;" style="shape=partialRectangle;connectable=0;fillColor=none;top=0;left=0;bottom=0;right=0;align=left;spacingLeft=6;overflow=hidden;whiteSpace=wrap;html=1;" parent="bdTvPmMyvIndACcMK4d0-286" vertex="1">
          <mxGeometry x="30" width="150" height="20" as="geometry">
            <mxRectangle width="150" height="20" as="alternateBounds" />
          </mxGeometry>
        </mxCell>
        <mxCell id="bdTvPmMyvIndACcMK4d0-289" value="" style="shape=tableRow;horizontal=0;startSize=0;swimlaneHead=0;swimlaneBody=0;fillColor=none;collapsible=0;dropTarget=0;points=[[0,0.5],[1,0.5]];portConstraint=eastwest;top=0;left=0;right=0;bottom=0;" parent="bdTvPmMyvIndACcMK4d0-279" vertex="1">
          <mxGeometry y="110" width="180" height="30" as="geometry" />
        </mxCell>
        <mxCell id="bdTvPmMyvIndACcMK4d0-290" value="FK3" style="shape=partialRectangle;connectable=0;fillColor=none;top=0;left=0;bottom=0;right=0;editable=1;overflow=hidden;whiteSpace=wrap;html=1;" parent="bdTvPmMyvIndACcMK4d0-289" vertex="1">
          <mxGeometry width="30" height="30" as="geometry">
            <mxRectangle width="30" height="30" as="alternateBounds" />
          </mxGeometry>
        </mxCell>
        <mxCell id="bdTvPmMyvIndACcMK4d0-291" value="&lt;span style=&quot;font-size: 11pt; line-height: 15.6933px; font-family: Aptos, sans-serif;&quot; lang=&quot;EN-AU&quot;&gt;clientNo&lt;/span&gt;&lt;span style=&quot;font-size: medium;&quot;&gt;&lt;/span&gt;" style="shape=partialRectangle;connectable=0;fillColor=none;top=0;left=0;bottom=0;right=0;align=left;spacingLeft=6;overflow=hidden;whiteSpace=wrap;html=1;" parent="bdTvPmMyvIndACcMK4d0-289" vertex="1">
          <mxGeometry x="30" width="150" height="30" as="geometry">
            <mxRectangle width="150" height="30" as="alternateBounds" />
          </mxGeometry>
        </mxCell>
        <mxCell id="bdTvPmMyvIndACcMK4d0-482" value="" style="shape=tableRow;horizontal=0;startSize=0;swimlaneHead=0;swimlaneBody=0;fillColor=none;collapsible=0;dropTarget=0;points=[[0,0.5],[1,0.5]];portConstraint=eastwest;top=0;left=0;right=0;bottom=0;" parent="bdTvPmMyvIndACcMK4d0-279" vertex="1">
          <mxGeometry y="140" width="180" height="30" as="geometry" />
        </mxCell>
        <mxCell id="bdTvPmMyvIndACcMK4d0-483" value="FK4" style="shape=partialRectangle;connectable=0;fillColor=none;top=0;left=0;bottom=0;right=0;editable=1;overflow=hidden;whiteSpace=wrap;html=1;" parent="bdTvPmMyvIndACcMK4d0-482" vertex="1">
          <mxGeometry width="30" height="30" as="geometry">
            <mxRectangle width="30" height="30" as="alternateBounds" />
          </mxGeometry>
        </mxCell>
        <mxCell id="bdTvPmMyvIndACcMK4d0-484" value="&lt;a style=&quot;font-size: medium;&quot; name=&quot;OLE_LINK62&quot;&gt;&lt;/a&gt;&lt;a style=&quot;font-size: medium;&quot; name=&quot;OLE_LINK63&quot;&gt;&lt;/a&gt;&lt;a style=&quot;font-size: medium;&quot; name=&quot;OLE_LINK9&quot;&gt;&lt;span style=&quot;font-size: 11pt; line-height: 15.6933px; font-family: Aptos, sans-serif;&quot; lang=&quot;EN-AU&quot;&gt;prescribedCode&lt;/span&gt;&lt;/a&gt;&lt;span style=&quot;font-size: medium;&quot;&gt;&lt;/span&gt;&lt;br&gt;&lt;span style=&quot;font-size: medium;&quot;&gt;&lt;/span&gt;" style="shape=partialRectangle;connectable=0;fillColor=none;top=0;left=0;bottom=0;right=0;align=left;spacingLeft=6;overflow=hidden;whiteSpace=wrap;html=1;" parent="bdTvPmMyvIndACcMK4d0-482" vertex="1">
          <mxGeometry x="30" width="150" height="30" as="geometry">
            <mxRectangle width="150" height="30" as="alternateBounds" />
          </mxGeometry>
        </mxCell>
        <mxCell id="bdTvPmMyvIndACcMK4d0-485" value="" style="shape=tableRow;horizontal=0;startSize=0;swimlaneHead=0;swimlaneBody=0;fillColor=none;collapsible=0;dropTarget=0;points=[[0,0.5],[1,0.5]];portConstraint=eastwest;top=0;left=0;right=0;bottom=0;" parent="bdTvPmMyvIndACcMK4d0-279" vertex="1">
          <mxGeometry y="170" width="180" height="30" as="geometry" />
        </mxCell>
        <mxCell id="bdTvPmMyvIndACcMK4d0-486" value="FK5" style="shape=partialRectangle;connectable=0;fillColor=none;top=0;left=0;bottom=0;right=0;editable=1;overflow=hidden;whiteSpace=wrap;html=1;" parent="bdTvPmMyvIndACcMK4d0-485" vertex="1">
          <mxGeometry width="30" height="30" as="geometry">
            <mxRectangle width="30" height="30" as="alternateBounds" />
          </mxGeometry>
        </mxCell>
        <mxCell id="bdTvPmMyvIndACcMK4d0-487" value="&lt;span style=&quot;font-size: 11pt; line-height: 15.6933px; font-family: Aptos, sans-serif;&quot; lang=&quot;EN-AU&quot;&gt;serviceSurgeon&lt;/span&gt;&lt;span style=&quot;font-size: medium;&quot;&gt;&lt;/span&gt;&lt;br&gt;&lt;span style=&quot;font-size: medium;&quot;&gt;&lt;/span&gt;" style="shape=partialRectangle;connectable=0;fillColor=none;top=0;left=0;bottom=0;right=0;align=left;spacingLeft=6;overflow=hidden;whiteSpace=wrap;html=1;" parent="bdTvPmMyvIndACcMK4d0-485" vertex="1">
          <mxGeometry x="30" width="150" height="30" as="geometry">
            <mxRectangle width="150" height="30" as="alternateBounds" />
          </mxGeometry>
        </mxCell>
        <mxCell id="bdTvPmMyvIndACcMK4d0-488" value="" style="shape=tableRow;horizontal=0;startSize=0;swimlaneHead=0;swimlaneBody=0;fillColor=none;collapsible=0;dropTarget=0;points=[[0,0.5],[1,0.5]];portConstraint=eastwest;top=0;left=0;right=0;bottom=0;" parent="bdTvPmMyvIndACcMK4d0-279" vertex="1">
          <mxGeometry y="200" width="180" height="30" as="geometry" />
        </mxCell>
        <mxCell id="bdTvPmMyvIndACcMK4d0-489" value="" style="shape=partialRectangle;connectable=0;fillColor=none;top=0;left=0;bottom=0;right=0;editable=1;overflow=hidden;whiteSpace=wrap;html=1;" parent="bdTvPmMyvIndACcMK4d0-488" vertex="1">
          <mxGeometry width="30" height="30" as="geometry">
            <mxRectangle width="30" height="30" as="alternateBounds" />
          </mxGeometry>
        </mxCell>
        <mxCell id="bdTvPmMyvIndACcMK4d0-490" value="&lt;span style=&quot;font-family: Aptos, sans-serif; font-size: 14.6667px;&quot;&gt;createDate&lt;/span&gt;" style="shape=partialRectangle;connectable=0;fillColor=none;top=0;left=0;bottom=0;right=0;align=left;spacingLeft=6;overflow=hidden;whiteSpace=wrap;html=1;" parent="bdTvPmMyvIndACcMK4d0-488" vertex="1">
          <mxGeometry x="30" width="150" height="30" as="geometry">
            <mxRectangle width="150" height="30" as="alternateBounds" />
          </mxGeometry>
        </mxCell>
        <mxCell id="bdTvPmMyvIndACcMK4d0-497" value="" style="shape=tableRow;horizontal=0;startSize=0;swimlaneHead=0;swimlaneBody=0;fillColor=none;collapsible=0;dropTarget=0;points=[[0,0.5],[1,0.5]];portConstraint=eastwest;top=0;left=0;right=0;bottom=0;" parent="bdTvPmMyvIndACcMK4d0-279" vertex="1">
          <mxGeometry y="230" width="180" height="30" as="geometry" />
        </mxCell>
        <mxCell id="bdTvPmMyvIndACcMK4d0-498" value="" style="shape=partialRectangle;connectable=0;fillColor=none;top=0;left=0;bottom=0;right=0;editable=1;overflow=hidden;whiteSpace=wrap;html=1;" parent="bdTvPmMyvIndACcMK4d0-497" vertex="1">
          <mxGeometry width="30" height="30" as="geometry">
            <mxRectangle width="30" height="30" as="alternateBounds" />
          </mxGeometry>
        </mxCell>
        <mxCell id="bdTvPmMyvIndACcMK4d0-499" value="&lt;span style=&quot;font-family: Aptos, sans-serif; font-size: 14.6667px;&quot;&gt;finalDate&lt;/span&gt;&lt;br&gt;&lt;span style=&quot;font-size: medium;&quot;&gt;&lt;/span&gt;" style="shape=partialRectangle;connectable=0;fillColor=none;top=0;left=0;bottom=0;right=0;align=left;spacingLeft=6;overflow=hidden;whiteSpace=wrap;html=1;" parent="bdTvPmMyvIndACcMK4d0-497" vertex="1">
          <mxGeometry x="30" width="150" height="30" as="geometry">
            <mxRectangle width="150" height="30" as="alternateBounds" />
          </mxGeometry>
        </mxCell>
        <mxCell id="bdTvPmMyvIndACcMK4d0-500" value="" style="shape=tableRow;horizontal=0;startSize=0;swimlaneHead=0;swimlaneBody=0;fillColor=none;collapsible=0;dropTarget=0;points=[[0,0.5],[1,0.5]];portConstraint=eastwest;top=0;left=0;right=0;bottom=0;" parent="bdTvPmMyvIndACcMK4d0-279" vertex="1">
          <mxGeometry y="260" width="180" height="30" as="geometry" />
        </mxCell>
        <mxCell id="bdTvPmMyvIndACcMK4d0-501" value="" style="shape=partialRectangle;connectable=0;fillColor=none;top=0;left=0;bottom=0;right=0;editable=1;overflow=hidden;whiteSpace=wrap;html=1;" parent="bdTvPmMyvIndACcMK4d0-500" vertex="1">
          <mxGeometry width="30" height="30" as="geometry">
            <mxRectangle width="30" height="30" as="alternateBounds" />
          </mxGeometry>
        </mxCell>
        <mxCell id="bdTvPmMyvIndACcMK4d0-502" value="&lt;span style=&quot;font-family: Aptos, sans-serif; font-size: 14.6667px;&quot;&gt;clinicalComment&lt;/span&gt;&lt;br&gt;&lt;span style=&quot;font-size: medium;&quot;&gt;&lt;/span&gt;" style="shape=partialRectangle;connectable=0;fillColor=none;top=0;left=0;bottom=0;right=0;align=left;spacingLeft=6;overflow=hidden;whiteSpace=wrap;html=1;" parent="bdTvPmMyvIndACcMK4d0-500" vertex="1">
          <mxGeometry x="30" width="150" height="30" as="geometry">
            <mxRectangle width="150" height="30" as="alternateBounds" />
          </mxGeometry>
        </mxCell>
        <mxCell id="bdTvPmMyvIndACcMK4d0-538" value="" style="shape=tableRow;horizontal=0;startSize=0;swimlaneHead=0;swimlaneBody=0;fillColor=none;collapsible=0;dropTarget=0;points=[[0,0.5],[1,0.5]];portConstraint=eastwest;top=0;left=0;right=0;bottom=0;" parent="bdTvPmMyvIndACcMK4d0-279" vertex="1">
          <mxGeometry y="290" width="180" height="30" as="geometry" />
        </mxCell>
        <mxCell id="bdTvPmMyvIndACcMK4d0-539" value="" style="shape=partialRectangle;connectable=0;fillColor=none;top=0;left=0;bottom=0;right=0;editable=1;overflow=hidden;whiteSpace=wrap;html=1;" parent="bdTvPmMyvIndACcMK4d0-538" vertex="1">
          <mxGeometry width="30" height="30" as="geometry">
            <mxRectangle width="30" height="30" as="alternateBounds" />
          </mxGeometry>
        </mxCell>
        <mxCell id="bdTvPmMyvIndACcMK4d0-540" value="&lt;span style=&quot;font-family: Aptos, sans-serif; font-size: 14.6667px;&quot;&gt;totalFee&lt;/span&gt;&lt;br&gt;&lt;span style=&quot;font-size: medium;&quot;&gt;&lt;/span&gt;" style="shape=partialRectangle;connectable=0;fillColor=none;top=0;left=0;bottom=0;right=0;align=left;spacingLeft=6;overflow=hidden;whiteSpace=wrap;html=1;" parent="bdTvPmMyvIndACcMK4d0-538" vertex="1">
          <mxGeometry x="30" width="150" height="30" as="geometry">
            <mxRectangle width="150" height="30" as="alternateBounds" />
          </mxGeometry>
        </mxCell>
        <mxCell id="bdTvPmMyvIndACcMK4d0-552" value="" style="shape=tableRow;horizontal=0;startSize=0;swimlaneHead=0;swimlaneBody=0;fillColor=none;collapsible=0;dropTarget=0;points=[[0,0.5],[1,0.5]];portConstraint=eastwest;top=0;left=0;right=0;bottom=0;" parent="bdTvPmMyvIndACcMK4d0-279" vertex="1">
          <mxGeometry y="320" width="180" height="30" as="geometry" />
        </mxCell>
        <mxCell id="bdTvPmMyvIndACcMK4d0-553" value="" style="shape=partialRectangle;connectable=0;fillColor=none;top=0;left=0;bottom=0;right=0;editable=1;overflow=hidden;whiteSpace=wrap;html=1;" parent="bdTvPmMyvIndACcMK4d0-552" vertex="1">
          <mxGeometry width="30" height="30" as="geometry">
            <mxRectangle width="30" height="30" as="alternateBounds" />
          </mxGeometry>
        </mxCell>
        <mxCell id="bdTvPmMyvIndACcMK4d0-554" value="&lt;a style=&quot;font-size: medium;&quot; name=&quot;OLE_LINK62&quot;&gt;&lt;/a&gt;&lt;span style=&quot;font-family: Aptos, sans-serif; font-size: 14.6667px;&quot;&gt;status&lt;/span&gt;&lt;br&gt;&lt;span style=&quot;font-size: medium;&quot;&gt;&lt;/span&gt;" style="shape=partialRectangle;connectable=0;fillColor=none;top=0;left=0;bottom=0;right=0;align=left;spacingLeft=6;overflow=hidden;whiteSpace=wrap;html=1;" parent="bdTvPmMyvIndACcMK4d0-552" vertex="1">
          <mxGeometry x="30" width="150" height="30" as="geometry">
            <mxRectangle width="150" height="30" as="alternateBounds" />
          </mxGeometry>
        </mxCell>
        <mxCell id="bdTvPmMyvIndACcMK4d0-292" style="edgeStyle=orthogonalEdgeStyle;rounded=0;orthogonalLoop=1;jettySize=auto;html=1;entryX=0;entryY=0.5;entryDx=0;entryDy=0;exitX=1;exitY=0.5;exitDx=0;exitDy=0;endArrow=none;endFill=0;" parent="1" source="bdTvPmMyvIndACcMK4d0-196" target="bdTvPmMyvIndACcMK4d0-185" edge="1">
          <mxGeometry relative="1" as="geometry" />
        </mxCell>
        <mxCell id="bdTvPmMyvIndACcMK4d0-294" value="0..1" style="text;html=1;align=center;verticalAlign=middle;resizable=0;points=[];autosize=1;strokeColor=none;fillColor=none;" parent="1" vertex="1">
          <mxGeometry x="1084" y="115" width="40" height="30" as="geometry" />
        </mxCell>
        <mxCell id="bdTvPmMyvIndACcMK4d0-295" value="1..1" style="text;html=1;align=center;verticalAlign=middle;resizable=0;points=[];autosize=1;strokeColor=none;fillColor=none;" parent="1" vertex="1">
          <mxGeometry x="463" y="680" width="40" height="30" as="geometry" />
        </mxCell>
        <mxCell id="bdTvPmMyvIndACcMK4d0-296" value="1..*" style="text;html=1;align=center;verticalAlign=middle;resizable=0;points=[];autosize=1;strokeColor=none;fillColor=none;" parent="1" vertex="1">
          <mxGeometry x="593" y="325" width="40" height="30" as="geometry" />
        </mxCell>
        <mxCell id="bdTvPmMyvIndACcMK4d0-297" value="0..*" style="text;html=1;align=center;verticalAlign=middle;resizable=0;points=[];autosize=1;strokeColor=none;fillColor=none;" parent="1" vertex="1">
          <mxGeometry x="1360" y="854.5" width="40" height="30" as="geometry" />
        </mxCell>
        <mxCell id="bdTvPmMyvIndACcMK4d0-298" style="edgeStyle=orthogonalEdgeStyle;rounded=0;orthogonalLoop=1;jettySize=auto;html=1;entryX=0;entryY=0.5;entryDx=0;entryDy=0;exitX=0.489;exitY=1.022;exitDx=0;exitDy=0;exitPerimeter=0;endArrow=none;endFill=0;" parent="1" source="bdTvPmMyvIndACcMK4d0-303" target="bdTvPmMyvIndACcMK4d0-360" edge="1">
          <mxGeometry relative="1" as="geometry">
            <mxPoint x="438.28" y="220.12000000000012" as="sourcePoint" />
          </mxGeometry>
        </mxCell>
        <mxCell id="bdTvPmMyvIndACcMK4d0-378" style="edgeStyle=orthogonalEdgeStyle;rounded=0;orthogonalLoop=1;jettySize=auto;html=1;entryX=1;entryY=0.05;entryDx=0;entryDy=0;entryPerimeter=0;endArrow=none;endFill=0;" parent="1" source="bdTvPmMyvIndACcMK4d0-299" target="bdTvPmMyvIndACcMK4d0-403" edge="1">
          <mxGeometry relative="1" as="geometry">
            <mxPoint x="900" y="1110" as="targetPoint" />
            <Array as="points">
              <mxPoint x="60" y="125" />
              <mxPoint x="60" y="1070" />
              <mxPoint x="1003" y="1070" />
            </Array>
          </mxGeometry>
        </mxCell>
        <mxCell id="bdTvPmMyvIndACcMK4d0-299" value="clinic" style="shape=table;startSize=30;container=1;collapsible=1;childLayout=tableLayout;fixedRows=1;rowLines=0;fontStyle=1;align=center;resizeLast=1;html=1;" parent="1" vertex="1">
          <mxGeometry x="340" y="70" width="180" height="90" as="geometry" />
        </mxCell>
        <mxCell id="bdTvPmMyvIndACcMK4d0-300" value="" style="shape=tableRow;horizontal=0;startSize=0;swimlaneHead=0;swimlaneBody=0;fillColor=none;collapsible=0;dropTarget=0;points=[[0,0.5],[1,0.5]];portConstraint=eastwest;top=0;left=0;right=0;bottom=1;" parent="bdTvPmMyvIndACcMK4d0-299" vertex="1">
          <mxGeometry y="30" width="180" height="30" as="geometry" />
        </mxCell>
        <mxCell id="bdTvPmMyvIndACcMK4d0-301" value="PK" style="shape=partialRectangle;connectable=0;fillColor=none;top=0;left=0;bottom=0;right=0;fontStyle=1;overflow=hidden;whiteSpace=wrap;html=1;" parent="bdTvPmMyvIndACcMK4d0-300" vertex="1">
          <mxGeometry width="30" height="30" as="geometry">
            <mxRectangle width="30" height="30" as="alternateBounds" />
          </mxGeometry>
        </mxCell>
        <mxCell id="bdTvPmMyvIndACcMK4d0-302" value="&lt;span style=&quot;font-size: 11pt; line-height: 15.6933px; font-family: Aptos, sans-serif;&quot; lang=&quot;EN-US&quot;&gt;clinicNo&lt;/span&gt;&lt;span style=&quot;font-size: medium; font-weight: 400;&quot;&gt;&lt;/span&gt;" style="shape=partialRectangle;connectable=0;fillColor=none;top=0;left=0;bottom=0;right=0;align=left;spacingLeft=6;fontStyle=5;overflow=hidden;whiteSpace=wrap;html=1;" parent="bdTvPmMyvIndACcMK4d0-300" vertex="1">
          <mxGeometry x="30" width="150" height="30" as="geometry">
            <mxRectangle width="150" height="30" as="alternateBounds" />
          </mxGeometry>
        </mxCell>
        <mxCell id="bdTvPmMyvIndACcMK4d0-303" value="" style="shape=tableRow;horizontal=0;startSize=0;swimlaneHead=0;swimlaneBody=0;fillColor=none;collapsible=0;dropTarget=0;points=[[0,0.5],[1,0.5]];portConstraint=eastwest;top=0;left=0;right=0;bottom=0;" parent="bdTvPmMyvIndACcMK4d0-299" vertex="1">
          <mxGeometry y="60" width="180" height="30" as="geometry" />
        </mxCell>
        <mxCell id="bdTvPmMyvIndACcMK4d0-304" value="" style="shape=partialRectangle;connectable=0;fillColor=none;top=0;left=0;bottom=0;right=0;editable=1;overflow=hidden;whiteSpace=wrap;html=1;" parent="bdTvPmMyvIndACcMK4d0-303" vertex="1">
          <mxGeometry width="30" height="30" as="geometry">
            <mxRectangle width="30" height="30" as="alternateBounds" />
          </mxGeometry>
        </mxCell>
        <mxCell id="bdTvPmMyvIndACcMK4d0-305" value="&lt;span style=&quot;font-size: 11pt; line-height: 15.6933px; font-family: Aptos, sans-serif;&quot; lang=&quot;EN-US&quot;&gt;clinicName&lt;/span&gt;&lt;span style=&quot;font-size: medium;&quot;&gt;&lt;/span&gt;" style="shape=partialRectangle;connectable=0;fillColor=none;top=0;left=0;bottom=0;right=0;align=left;spacingLeft=6;overflow=hidden;whiteSpace=wrap;html=1;" parent="bdTvPmMyvIndACcMK4d0-303" vertex="1">
          <mxGeometry x="30" width="150" height="30" as="geometry">
            <mxRectangle width="150" height="30" as="alternateBounds" />
          </mxGeometry>
        </mxCell>
        <mxCell id="bdTvPmMyvIndACcMK4d0-314" style="edgeStyle=orthogonalEdgeStyle;rounded=0;orthogonalLoop=1;jettySize=auto;html=1;entryX=0.5;entryY=0;entryDx=0;entryDy=0;exitX=0.5;exitY=0;exitDx=0;exitDy=0;endArrow=none;endFill=0;" parent="1" source="bdTvPmMyvIndACcMK4d0-299" target="bdTvPmMyvIndACcMK4d0-192" edge="1">
          <mxGeometry relative="1" as="geometry" />
        </mxCell>
        <mxCell id="bdTvPmMyvIndACcMK4d0-318" value="1..1" style="text;html=1;align=center;verticalAlign=middle;resizable=0;points=[];autosize=1;strokeColor=none;fillColor=none;" parent="1" vertex="1">
          <mxGeometry x="427" y="163" width="40" height="30" as="geometry" />
        </mxCell>
        <mxCell id="bdTvPmMyvIndACcMK4d0-319" value="1..1" style="text;html=1;align=center;verticalAlign=middle;resizable=0;points=[];autosize=1;strokeColor=none;fillColor=none;" parent="1" vertex="1">
          <mxGeometry x="463" y="899" width="40" height="30" as="geometry" />
        </mxCell>
        <mxCell id="bdTvPmMyvIndACcMK4d0-321" value="1..1" style="text;html=1;align=center;verticalAlign=middle;resizable=0;points=[];autosize=1;strokeColor=none;fillColor=none;" parent="1" vertex="1">
          <mxGeometry x="874" y="900.5" width="40" height="30" as="geometry" />
        </mxCell>
        <mxCell id="bdTvPmMyvIndACcMK4d0-322" value="1..*" style="text;html=1;align=center;verticalAlign=middle;resizable=0;points=[];autosize=1;strokeColor=none;fillColor=none;" parent="1" vertex="1">
          <mxGeometry x="790" y="145" width="40" height="30" as="geometry" />
        </mxCell>
        <mxCell id="bdTvPmMyvIndACcMK4d0-323" value="0..*" style="text;html=1;align=center;verticalAlign=middle;resizable=0;points=[];autosize=1;strokeColor=none;fillColor=none;" parent="1" vertex="1">
          <mxGeometry x="200" y="504.5" width="40" height="30" as="geometry" />
        </mxCell>
        <mxCell id="bdTvPmMyvIndACcMK4d0-324" value="1..*" style="text;html=1;align=center;verticalAlign=middle;resizable=0;points=[];autosize=1;strokeColor=none;fillColor=none;" parent="1" vertex="1">
          <mxGeometry x="960" y="38" width="40" height="30" as="geometry" />
        </mxCell>
        <mxCell id="bdTvPmMyvIndACcMK4d0-325" value="1..1" style="text;html=1;align=center;verticalAlign=middle;resizable=0;points=[];autosize=1;strokeColor=none;fillColor=none;" parent="1" vertex="1">
          <mxGeometry x="387" y="40" width="40" height="30" as="geometry" />
        </mxCell>
        <mxCell id="bdTvPmMyvIndACcMK4d0-326" value="1..*" style="text;html=1;align=center;verticalAlign=middle;resizable=0;points=[];autosize=1;strokeColor=none;fillColor=none;" parent="1" vertex="1">
          <mxGeometry x="683" y="899" width="40" height="30" as="geometry" />
        </mxCell>
        <mxCell id="bdTvPmMyvIndACcMK4d0-327" value="0..*" style="text;html=1;align=center;verticalAlign=middle;resizable=0;points=[];autosize=1;strokeColor=none;fillColor=none;" parent="1" vertex="1">
          <mxGeometry x="1270" y="680" width="40" height="30" as="geometry" />
        </mxCell>
        <mxCell id="bdTvPmMyvIndACcMK4d0-328" value="1..5" style="text;html=1;align=center;verticalAlign=middle;resizable=0;points=[];autosize=1;strokeColor=none;fillColor=none;" parent="1" vertex="1">
          <mxGeometry x="463" y="430" width="40" height="30" as="geometry" />
        </mxCell>
        <mxCell id="bdTvPmMyvIndACcMK4d0-329" value="1..*" style="text;html=1;align=center;verticalAlign=middle;resizable=0;points=[];autosize=1;strokeColor=none;fillColor=none;" parent="1" vertex="1">
          <mxGeometry x="1370" y="110" width="40" height="30" as="geometry" />
        </mxCell>
        <mxCell id="bdTvPmMyvIndACcMK4d0-331" value="1..1" style="text;html=1;align=center;verticalAlign=middle;resizable=0;points=[];autosize=1;strokeColor=none;fillColor=none;" parent="1" vertex="1">
          <mxGeometry x="330" y="681.5" width="40" height="30" as="geometry" />
        </mxCell>
        <mxCell id="bdTvPmMyvIndACcMK4d0-332" value="1..1" style="text;html=1;align=center;verticalAlign=middle;resizable=0;points=[];autosize=1;strokeColor=none;fillColor=none;" parent="1" vertex="1">
          <mxGeometry x="1400" y="603" width="40" height="30" as="geometry" />
        </mxCell>
        <mxCell id="bdTvPmMyvIndACcMK4d0-333" value="0..*" style="text;html=1;align=center;verticalAlign=middle;resizable=0;points=[];autosize=1;strokeColor=none;fillColor=none;" parent="1" vertex="1">
          <mxGeometry x="1100" y="680" width="40" height="30" as="geometry" />
        </mxCell>
        <mxCell id="bdTvPmMyvIndACcMK4d0-334" value="" style="swimlane;fontStyle=0;childLayout=stackLayout;horizontal=1;startSize=26;horizontalStack=0;resizeParent=1;resizeParentMax=0;resizeLast=0;collapsible=1;marginBottom=0;align=center;fontSize=14;" parent="1" vertex="1">
          <mxGeometry x="1323" y="297" width="160" height="116" as="geometry" />
        </mxCell>
        <mxCell id="bdTvPmMyvIndACcMK4d0-335" value="treatDate" style="text;strokeColor=none;fillColor=none;spacingLeft=4;spacingRight=4;overflow=hidden;rotatable=0;points=[[0,0.5],[1,0.5]];portConstraint=eastwest;fontSize=12;whiteSpace=wrap;html=1;" parent="bdTvPmMyvIndACcMK4d0-334" vertex="1">
          <mxGeometry y="26" width="160" height="30" as="geometry" />
        </mxCell>
        <mxCell id="bdTvPmMyvIndACcMK4d0-336" value="startTime" style="text;strokeColor=none;fillColor=none;spacingLeft=4;spacingRight=4;overflow=hidden;rotatable=0;points=[[0,0.5],[1,0.5]];portConstraint=eastwest;fontSize=12;whiteSpace=wrap;html=1;" parent="bdTvPmMyvIndACcMK4d0-334" vertex="1">
          <mxGeometry y="56" width="160" height="30" as="geometry" />
        </mxCell>
        <mxCell id="bdTvPmMyvIndACcMK4d0-436" value="finishTime" style="text;strokeColor=none;fillColor=none;spacingLeft=4;spacingRight=4;overflow=hidden;rotatable=0;points=[[0,0.5],[1,0.5]];portConstraint=eastwest;fontSize=12;whiteSpace=wrap;html=1;" parent="bdTvPmMyvIndACcMK4d0-334" vertex="1">
          <mxGeometry y="86" width="160" height="30" as="geometry" />
        </mxCell>
        <mxCell id="bdTvPmMyvIndACcMK4d0-337" style="edgeStyle=orthogonalEdgeStyle;rounded=0;orthogonalLoop=1;jettySize=auto;html=1;dashed=1;endArrow=none;endFill=0;entryX=0.5;entryY=0;entryDx=0;entryDy=0;exitX=0.481;exitY=1.013;exitDx=0;exitDy=0;exitPerimeter=0;" parent="1" source="bdTvPmMyvIndACcMK4d0-436" target="bdTvPmMyvIndACcMK4d0-362" edge="1">
          <mxGeometry relative="1" as="geometry">
            <mxPoint x="1400" y="419" as="sourcePoint" />
            <mxPoint x="1252" y="140" as="targetPoint" />
          </mxGeometry>
        </mxCell>
        <mxCell id="bdTvPmMyvIndACcMK4d0-338" value="" style="swimlane;fontStyle=0;childLayout=stackLayout;horizontal=1;startSize=26;horizontalStack=0;resizeParent=1;resizeParentMax=0;resizeLast=0;collapsible=1;marginBottom=0;align=center;fontSize=14;" parent="1" vertex="1">
          <mxGeometry x="190" y="232" width="160" height="56" as="geometry" />
        </mxCell>
        <mxCell id="bdTvPmMyvIndACcMK4d0-339" style="edgeStyle=orthogonalEdgeStyle;rounded=0;orthogonalLoop=1;jettySize=auto;html=1;endArrow=none;endFill=0;dashed=1;" parent="bdTvPmMyvIndACcMK4d0-338" source="bdTvPmMyvIndACcMK4d0-340" edge="1">
          <mxGeometry relative="1" as="geometry">
            <mxPoint x="-130" y="41" as="targetPoint" />
          </mxGeometry>
        </mxCell>
        <mxCell id="bdTvPmMyvIndACcMK4d0-340" value="assignDate" style="text;strokeColor=none;fillColor=none;spacingLeft=4;spacingRight=4;overflow=hidden;rotatable=0;points=[[0,0.5],[1,0.5]];portConstraint=eastwest;fontSize=12;whiteSpace=wrap;html=1;" parent="bdTvPmMyvIndACcMK4d0-338" vertex="1">
          <mxGeometry y="26" width="160" height="30" as="geometry" />
        </mxCell>
        <mxCell id="bdTvPmMyvIndACcMK4d0-341" style="edgeStyle=orthogonalEdgeStyle;rounded=0;orthogonalLoop=1;jettySize=auto;html=1;dashed=1;endArrow=none;endFill=0;" parent="1" source="bdTvPmMyvIndACcMK4d0-342" edge="1">
          <mxGeometry relative="1" as="geometry">
            <mxPoint x="780" y="710" as="targetPoint" />
          </mxGeometry>
        </mxCell>
        <mxCell id="bdTvPmMyvIndACcMK4d0-342" value="" style="swimlane;fontStyle=0;childLayout=stackLayout;horizontal=1;startSize=26;horizontalStack=0;resizeParent=1;resizeParentMax=0;resizeLast=0;collapsible=1;marginBottom=0;align=center;fontSize=14;" parent="1" vertex="1">
          <mxGeometry x="701" y="505" width="160" height="86" as="geometry" />
        </mxCell>
        <mxCell id="bdTvPmMyvIndACcMK4d0-343" value="schDate" style="text;strokeColor=none;fillColor=none;spacingLeft=4;spacingRight=4;overflow=hidden;rotatable=0;points=[[0,0.5],[1,0.5]];portConstraint=eastwest;fontSize=12;whiteSpace=wrap;html=1;" parent="bdTvPmMyvIndACcMK4d0-342" vertex="1">
          <mxGeometry y="26" width="160" height="30" as="geometry" />
        </mxCell>
        <mxCell id="bdTvPmMyvIndACcMK4d0-430" value="schTime" style="text;strokeColor=none;fillColor=none;spacingLeft=4;spacingRight=4;overflow=hidden;rotatable=0;points=[[0,0.5],[1,0.5]];portConstraint=eastwest;fontSize=12;whiteSpace=wrap;html=1;" parent="bdTvPmMyvIndACcMK4d0-342" vertex="1">
          <mxGeometry y="56" width="160" height="30" as="geometry" />
        </mxCell>
        <mxCell id="bdTvPmMyvIndACcMK4d0-346" value="treatment" style="shape=table;startSize=30;container=1;collapsible=1;childLayout=tableLayout;fixedRows=1;rowLines=0;fontStyle=1;align=center;resizeLast=1;html=1;" parent="1" vertex="1">
          <mxGeometry x="915" y="640" width="180" height="145" as="geometry" />
        </mxCell>
        <mxCell id="bdTvPmMyvIndACcMK4d0-347" value="" style="shape=tableRow;horizontal=0;startSize=0;swimlaneHead=0;swimlaneBody=0;fillColor=none;collapsible=0;dropTarget=0;points=[[0,0.5],[1,0.5]];portConstraint=eastwest;top=0;left=0;right=0;bottom=1;" parent="bdTvPmMyvIndACcMK4d0-346" vertex="1">
          <mxGeometry y="30" width="180" height="25" as="geometry" />
        </mxCell>
        <mxCell id="bdTvPmMyvIndACcMK4d0-348" value="PK" style="shape=partialRectangle;connectable=0;fillColor=none;top=0;left=0;bottom=0;right=0;fontStyle=1;overflow=hidden;whiteSpace=wrap;html=1;" parent="bdTvPmMyvIndACcMK4d0-347" vertex="1">
          <mxGeometry width="30" height="25" as="geometry">
            <mxRectangle width="30" height="25" as="alternateBounds" />
          </mxGeometry>
        </mxCell>
        <mxCell id="bdTvPmMyvIndACcMK4d0-349" value="&lt;span style=&quot;&quot;&gt;&lt;b&gt;treatmentNo&lt;/b&gt;&lt;/span&gt;" style="shape=partialRectangle;connectable=0;fillColor=none;top=0;left=0;bottom=0;right=0;align=left;spacingLeft=6;fontStyle=4;overflow=hidden;whiteSpace=wrap;html=1;" parent="bdTvPmMyvIndACcMK4d0-347" vertex="1">
          <mxGeometry x="30" width="150" height="25" as="geometry">
            <mxRectangle width="150" height="25" as="alternateBounds" />
          </mxGeometry>
        </mxCell>
        <mxCell id="bdTvPmMyvIndACcMK4d0-350" value="" style="shape=tableRow;horizontal=0;startSize=0;swimlaneHead=0;swimlaneBody=0;fillColor=none;collapsible=0;dropTarget=0;points=[[0,0.5],[1,0.5]];portConstraint=eastwest;top=0;left=0;right=0;bottom=0;" parent="bdTvPmMyvIndACcMK4d0-346" vertex="1">
          <mxGeometry y="55" width="180" height="30" as="geometry" />
        </mxCell>
        <mxCell id="bdTvPmMyvIndACcMK4d0-351" value="" style="shape=partialRectangle;connectable=0;fillColor=none;top=0;left=0;bottom=0;right=0;editable=1;overflow=hidden;whiteSpace=wrap;html=1;" parent="bdTvPmMyvIndACcMK4d0-350" vertex="1">
          <mxGeometry width="30" height="30" as="geometry">
            <mxRectangle width="30" height="30" as="alternateBounds" />
          </mxGeometry>
        </mxCell>
        <mxCell id="bdTvPmMyvIndACcMK4d0-352" value="&lt;span style=&quot;font-size: 11pt; line-height: 15.6933px; font-family: Aptos, sans-serif;&quot; lang=&quot;EN-AU&quot;&gt;description&lt;/span&gt;&lt;span style=&quot;font-size: medium;&quot;&gt;&lt;/span&gt;" style="shape=partialRectangle;connectable=0;fillColor=none;top=0;left=0;bottom=0;right=0;align=left;spacingLeft=6;overflow=hidden;whiteSpace=wrap;html=1;" parent="bdTvPmMyvIndACcMK4d0-350" vertex="1">
          <mxGeometry x="30" width="150" height="30" as="geometry">
            <mxRectangle width="150" height="30" as="alternateBounds" />
          </mxGeometry>
        </mxCell>
        <mxCell id="bdTvPmMyvIndACcMK4d0-353" value="" style="shape=tableRow;horizontal=0;startSize=0;swimlaneHead=0;swimlaneBody=0;fillColor=none;collapsible=0;dropTarget=0;points=[[0,0.5],[1,0.5]];portConstraint=eastwest;top=0;left=0;right=0;bottom=0;" parent="bdTvPmMyvIndACcMK4d0-346" vertex="1">
          <mxGeometry y="85" width="180" height="30" as="geometry" />
        </mxCell>
        <mxCell id="bdTvPmMyvIndACcMK4d0-354" value="" style="shape=partialRectangle;connectable=0;fillColor=none;top=0;left=0;bottom=0;right=0;editable=1;overflow=hidden;whiteSpace=wrap;html=1;" parent="bdTvPmMyvIndACcMK4d0-353" vertex="1">
          <mxGeometry width="30" height="30" as="geometry">
            <mxRectangle width="30" height="30" as="alternateBounds" />
          </mxGeometry>
        </mxCell>
        <mxCell id="bdTvPmMyvIndACcMK4d0-355" value="&lt;span style=&quot;font-size: 11pt; line-height: 15.6933px; font-family: Aptos, sans-serif;&quot; lang=&quot;EN-AU&quot;&gt;treatFee&lt;/span&gt;&lt;span style=&quot;font-size: medium;&quot;&gt;&lt;/span&gt;" style="shape=partialRectangle;connectable=0;fillColor=none;top=0;left=0;bottom=0;right=0;align=left;spacingLeft=6;overflow=hidden;whiteSpace=wrap;html=1;" parent="bdTvPmMyvIndACcMK4d0-353" vertex="1">
          <mxGeometry x="30" width="150" height="30" as="geometry">
            <mxRectangle width="150" height="30" as="alternateBounds" />
          </mxGeometry>
        </mxCell>
        <mxCell id="bdTvPmMyvIndACcMK4d0-356" value="" style="shape=tableRow;horizontal=0;startSize=0;swimlaneHead=0;swimlaneBody=0;fillColor=none;collapsible=0;dropTarget=0;points=[[0,0.5],[1,0.5]];portConstraint=eastwest;top=0;left=0;right=0;bottom=0;" parent="bdTvPmMyvIndACcMK4d0-346" vertex="1">
          <mxGeometry y="115" width="180" height="30" as="geometry" />
        </mxCell>
        <mxCell id="bdTvPmMyvIndACcMK4d0-357" value="FK" style="shape=partialRectangle;connectable=0;fillColor=none;top=0;left=0;bottom=0;right=0;editable=1;overflow=hidden;whiteSpace=wrap;html=1;" parent="bdTvPmMyvIndACcMK4d0-356" vertex="1">
          <mxGeometry width="30" height="30" as="geometry">
            <mxRectangle width="30" height="30" as="alternateBounds" />
          </mxGeometry>
        </mxCell>
        <mxCell id="bdTvPmMyvIndACcMK4d0-358" value="&lt;span style=&quot;font-size: 11pt; line-height: 15.6933px; font-family: Aptos, sans-serif;&quot; lang=&quot;EN-AU&quot;&gt;surgeonID&lt;/span&gt;&lt;span style=&quot;font-size: medium;&quot;&gt;&lt;/span&gt;" style="shape=partialRectangle;connectable=0;fillColor=none;top=0;left=0;bottom=0;right=0;align=left;spacingLeft=6;overflow=hidden;whiteSpace=wrap;html=1;" parent="bdTvPmMyvIndACcMK4d0-356" vertex="1">
          <mxGeometry x="30" width="150" height="30" as="geometry">
            <mxRectangle width="150" height="30" as="alternateBounds" />
          </mxGeometry>
        </mxCell>
        <mxCell id="bdTvPmMyvIndACcMK4d0-359" style="edgeStyle=orthogonalEdgeStyle;rounded=0;orthogonalLoop=1;jettySize=auto;html=1;exitX=0.5;exitY=1;exitDx=0;exitDy=0;entryX=0.5;entryY=0;entryDx=0;entryDy=0;endArrow=none;endFill=0;" parent="1" source="bdTvPmMyvIndACcMK4d0-360" target="bdTvPmMyvIndACcMK4d0-266" edge="1">
          <mxGeometry relative="1" as="geometry">
            <mxPoint x="593" y="364" as="sourcePoint" />
          </mxGeometry>
        </mxCell>
        <mxCell id="bdTvPmMyvIndACcMK4d0-360" value="give" style="rhombus;whiteSpace=wrap;html=1;" parent="1" vertex="1">
          <mxGeometry x="553" y="193" width="80" height="80" as="geometry" />
        </mxCell>
        <mxCell id="bdTvPmMyvIndACcMK4d0-365" style="edgeStyle=orthogonalEdgeStyle;rounded=0;orthogonalLoop=1;jettySize=auto;html=1;exitX=0.5;exitY=1;exitDx=0;exitDy=0;entryX=0.5;entryY=0;entryDx=0;entryDy=0;endArrow=none;endFill=0;" parent="1" source="bdTvPmMyvIndACcMK4d0-362" target="bdTvPmMyvIndACcMK4d0-217" edge="1">
          <mxGeometry relative="1" as="geometry" />
        </mxCell>
        <mxCell id="bdTvPmMyvIndACcMK4d0-362" value="treat" style="rhombus;whiteSpace=wrap;html=1;" parent="1" vertex="1">
          <mxGeometry x="1360" y="455" width="80" height="80" as="geometry" />
        </mxCell>
        <mxCell id="bdTvPmMyvIndACcMK4d0-367" style="edgeStyle=orthogonalEdgeStyle;rounded=0;orthogonalLoop=1;jettySize=auto;html=1;endArrow=none;endFill=0;" parent="1" source="bdTvPmMyvIndACcMK4d0-248" target="bdTvPmMyvIndACcMK4d0-279" edge="1">
          <mxGeometry relative="1" as="geometry">
            <mxPoint x="500" y="705" as="sourcePoint" />
            <mxPoint x="260" y="725" as="targetPoint" />
          </mxGeometry>
        </mxCell>
        <mxCell id="bdTvPmMyvIndACcMK4d0-371" style="edgeStyle=orthogonalEdgeStyle;rounded=0;orthogonalLoop=1;jettySize=auto;html=1;entryX=0;entryY=0.5;entryDx=0;entryDy=0;endArrow=none;endFill=0;" parent="1" source="bdTvPmMyvIndACcMK4d0-279" target="bdTvPmMyvIndACcMK4d0-273" edge="1">
          <mxGeometry relative="1" as="geometry" />
        </mxCell>
        <mxCell id="bdTvPmMyvIndACcMK4d0-403" value="0..*" style="text;html=1;align=center;verticalAlign=middle;resizable=0;points=[];autosize=1;strokeColor=none;fillColor=none;" parent="1" vertex="1">
          <mxGeometry x="963" y="1006.5" width="40" height="30" as="geometry" />
        </mxCell>
        <mxCell id="bdTvPmMyvIndACcMK4d0-404" value="1..1" style="text;html=1;align=center;verticalAlign=middle;resizable=0;points=[];autosize=1;strokeColor=none;fillColor=none;" parent="1" vertex="1">
          <mxGeometry x="1470" y="201" width="40" height="30" as="geometry" />
        </mxCell>
        <mxCell id="bdTvPmMyvIndACcMK4d0-405" value="1..1" style="text;html=1;align=center;verticalAlign=middle;resizable=0;points=[];autosize=1;strokeColor=none;fillColor=none;" parent="1" vertex="1">
          <mxGeometry x="960" y="295" width="40" height="30" as="geometry" />
        </mxCell>
        <mxCell id="bdTvPmMyvIndACcMK4d0-406" value="1..*" style="text;html=1;align=center;verticalAlign=middle;resizable=0;points=[];autosize=1;strokeColor=none;fillColor=none;" parent="1" vertex="1">
          <mxGeometry x="1099" y="900.5" width="40" height="30" as="geometry" />
        </mxCell>
        <mxCell id="bdTvPmMyvIndACcMK4d0-411" style="edgeStyle=orthogonalEdgeStyle;rounded=0;orthogonalLoop=1;jettySize=auto;html=1;entryX=1;entryY=0.5;entryDx=0;entryDy=0;endArrow=none;endFill=0;" parent="1" source="bdTvPmMyvIndACcMK4d0-350" target="bdTvPmMyvIndACcMK4d0-255" edge="1">
          <mxGeometry relative="1" as="geometry" />
        </mxCell>
        <mxCell id="bdTvPmMyvIndACcMK4d0-422" value="1..1" style="text;html=1;align=center;verticalAlign=middle;resizable=0;points=[];autosize=1;strokeColor=none;fillColor=none;" parent="1" vertex="1">
          <mxGeometry x="200" y="884.5" width="40" height="30" as="geometry" />
        </mxCell>
        <mxCell id="bdTvPmMyvIndACcMK4d0-425" value="1..1" style="text;html=1;align=center;verticalAlign=middle;resizable=0;points=[];autosize=1;strokeColor=none;fillColor=none;" parent="1" vertex="1">
          <mxGeometry x="300" y="130" width="40" height="30" as="geometry" />
        </mxCell>
        <mxCell id="bdTvPmMyvIndACcMK4d0-426" value="1..1" style="text;html=1;align=center;verticalAlign=middle;resizable=0;points=[];autosize=1;strokeColor=none;fillColor=none;" parent="1" vertex="1">
          <mxGeometry x="875" y="679" width="40" height="30" as="geometry" />
        </mxCell>
        <mxCell id="bdTvPmMyvIndACcMK4d0-427" value="1..1" style="text;html=1;align=center;verticalAlign=middle;resizable=0;points=[];autosize=1;strokeColor=none;fillColor=none;" parent="1" vertex="1">
          <mxGeometry x="683" y="676" width="40" height="30" as="geometry" />
        </mxCell>
        <mxCell id="bdTvPmMyvIndACcMK4d0-434" style="edgeStyle=orthogonalEdgeStyle;rounded=0;orthogonalLoop=1;jettySize=auto;html=1;endArrow=none;endFill=0;dashed=1;" parent="1" source="bdTvPmMyvIndACcMK4d0-431" edge="1">
          <mxGeometry relative="1" as="geometry">
            <mxPoint x="1280" y="140" as="targetPoint" />
          </mxGeometry>
        </mxCell>
        <mxCell id="bdTvPmMyvIndACcMK4d0-431" value="" style="swimlane;fontStyle=0;childLayout=stackLayout;horizontal=1;startSize=26;horizontalStack=0;resizeParent=1;resizeParentMax=0;resizeLast=0;collapsible=1;marginBottom=0;align=center;fontSize=14;" parent="1" vertex="1">
          <mxGeometry x="1200" y="175" width="160" height="56" as="geometry" />
        </mxCell>
        <mxCell id="bdTvPmMyvIndACcMK4d0-432" value="useState" style="text;strokeColor=none;fillColor=none;spacingLeft=4;spacingRight=4;overflow=hidden;rotatable=0;points=[[0,0.5],[1,0.5]];portConstraint=eastwest;fontSize=12;whiteSpace=wrap;html=1;" parent="bdTvPmMyvIndACcMK4d0-431" vertex="1">
          <mxGeometry y="26" width="160" height="30" as="geometry" />
        </mxCell>
        <mxCell id="bdTvPmMyvIndACcMK4d0-447" value="" style="group" parent="1" vertex="1" connectable="0">
          <mxGeometry x="672" y="19.5" width="51" height="30" as="geometry" />
        </mxCell>
        <mxCell id="bdTvPmMyvIndACcMK4d0-437" value="" style="shape=image;html=1;verticalAlign=top;verticalLabelPosition=bottom;labelBackgroundColor=#ffffff;imageAspect=0;aspect=fixed;image=https://cdn4.iconfinder.com/data/icons/essential-app-2/16/play-music-triangle-media-128.png" parent="bdTvPmMyvIndACcMK4d0-447" vertex="1">
          <mxGeometry x="40" y="9.5" width="10.5" height="10.5" as="geometry" />
        </mxCell>
        <mxCell id="bdTvPmMyvIndACcMK4d0-442" value="hire" style="text;html=1;align=center;verticalAlign=middle;resizable=0;points=[];autosize=1;strokeColor=none;fillColor=none;" parent="bdTvPmMyvIndACcMK4d0-447" vertex="1">
          <mxGeometry width="40" height="30" as="geometry" />
        </mxCell>
        <mxCell id="bdTvPmMyvIndACcMK4d0-448" value="" style="group" parent="1" vertex="1" connectable="0">
          <mxGeometry x="1224" y="110" width="51" height="30" as="geometry" />
        </mxCell>
        <mxCell id="bdTvPmMyvIndACcMK4d0-449" value="" style="shape=image;html=1;verticalAlign=top;verticalLabelPosition=bottom;labelBackgroundColor=#ffffff;imageAspect=0;aspect=fixed;image=https://cdn4.iconfinder.com/data/icons/essential-app-2/16/play-music-triangle-media-128.png" parent="bdTvPmMyvIndACcMK4d0-448" vertex="1">
          <mxGeometry x="40" y="9.5" width="11" height="11" as="geometry" />
        </mxCell>
        <mxCell id="bdTvPmMyvIndACcMK4d0-450" value="use" style="text;html=1;align=center;verticalAlign=middle;resizable=0;points=[];autosize=1;strokeColor=none;fillColor=none;" parent="bdTvPmMyvIndACcMK4d0-448" vertex="1">
          <mxGeometry width="40" height="30" as="geometry" />
        </mxCell>
        <mxCell id="bdTvPmMyvIndACcMK4d0-451" value="" style="group" parent="1" vertex="1" connectable="0">
          <mxGeometry x="1260" y="900" width="55" height="30" as="geometry" />
        </mxCell>
        <mxCell id="bdTvPmMyvIndACcMK4d0-452" value="" style="shape=image;html=1;verticalAlign=top;verticalLabelPosition=bottom;labelBackgroundColor=#ffffff;imageAspect=0;aspect=fixed;image=https://cdn4.iconfinder.com/data/icons/essential-app-2/16/play-music-triangle-media-128.png" parent="bdTvPmMyvIndACcMK4d0-451" vertex="1">
          <mxGeometry x="40" y="9.5" width="11" height="11" as="geometry" />
        </mxCell>
        <mxCell id="bdTvPmMyvIndACcMK4d0-453" value="&lt;span style=&quot;font-size: 11px; background-color: rgb(255, 255, 255);&quot;&gt;response&lt;/span&gt;" style="text;html=1;align=center;verticalAlign=middle;resizable=0;points=[];autosize=1;strokeColor=none;fillColor=none;" parent="bdTvPmMyvIndACcMK4d0-451" vertex="1">
          <mxGeometry x="-23" y="-1" width="70" height="30" as="geometry" />
        </mxCell>
        <mxCell id="bdTvPmMyvIndACcMK4d0-454" value="" style="group" parent="1" vertex="1" connectable="0">
          <mxGeometry x="310" y="899" width="55" height="30" as="geometry" />
        </mxCell>
        <mxCell id="bdTvPmMyvIndACcMK4d0-455" value="" style="shape=image;html=1;verticalAlign=top;verticalLabelPosition=bottom;labelBackgroundColor=#ffffff;imageAspect=0;aspect=fixed;image=https://cdn4.iconfinder.com/data/icons/essential-app-2/16/play-music-triangle-media-128.png" parent="bdTvPmMyvIndACcMK4d0-454" vertex="1">
          <mxGeometry x="40" y="9.5" width="11" height="11" as="geometry" />
        </mxCell>
        <mxCell id="bdTvPmMyvIndACcMK4d0-456" value="&lt;span style=&quot;font-size: 11px; background-color: rgb(255, 255, 255);&quot;&gt;send&lt;/span&gt;" style="text;html=1;align=center;verticalAlign=middle;resizable=0;points=[];autosize=1;strokeColor=none;fillColor=none;" parent="bdTvPmMyvIndACcMK4d0-454" vertex="1">
          <mxGeometry x="-7" y="-1" width="50" height="30" as="geometry" />
        </mxCell>
        <mxCell id="bdTvPmMyvIndACcMK4d0-461" value="" style="group" parent="1" vertex="1" connectable="0">
          <mxGeometry x="60" y="186" width="60" height="45" as="geometry" />
        </mxCell>
        <mxCell id="bdTvPmMyvIndACcMK4d0-459" value="assign" style="text;html=1;align=center;verticalAlign=middle;resizable=0;points=[];autosize=1;strokeColor=none;fillColor=none;" parent="bdTvPmMyvIndACcMK4d0-461" vertex="1">
          <mxGeometry width="60" height="30" as="geometry" />
        </mxCell>
        <mxCell id="bdTvPmMyvIndACcMK4d0-460" value="" style="shape=image;html=1;verticalAlign=top;verticalLabelPosition=bottom;labelBackgroundColor=#ffffff;imageAspect=0;aspect=fixed;image=https://cdn1.iconfinder.com/data/icons/ionicons-fill-vol-2/512/triangle-128.png;rotation=-180;" parent="bdTvPmMyvIndACcMK4d0-461" vertex="1">
          <mxGeometry x="25" y="30" width="10" height="10" as="geometry" />
        </mxCell>
        <mxCell id="bdTvPmMyvIndACcMK4d0-462" value="" style="group" parent="1" vertex="1" connectable="0">
          <mxGeometry x="305" y="430" width="60" height="45" as="geometry" />
        </mxCell>
        <mxCell id="bdTvPmMyvIndACcMK4d0-463" value="&lt;span style=&quot;font-size: 11px; background-color: rgb(255, 255, 255);&quot;&gt;identify&lt;/span&gt;" style="text;html=1;align=center;verticalAlign=middle;resizable=0;points=[];autosize=1;strokeColor=none;fillColor=none;" parent="bdTvPmMyvIndACcMK4d0-462" vertex="1">
          <mxGeometry width="60" height="30" as="geometry" />
        </mxCell>
        <mxCell id="bdTvPmMyvIndACcMK4d0-467" value="" style="group" parent="1" vertex="1" connectable="0">
          <mxGeometry x="770" y="900" width="51" height="30" as="geometry" />
        </mxCell>
        <mxCell id="bdTvPmMyvIndACcMK4d0-468" value="" style="shape=image;html=1;verticalAlign=top;verticalLabelPosition=bottom;labelBackgroundColor=#ffffff;imageAspect=0;aspect=fixed;image=https://cdn4.iconfinder.com/data/icons/essential-app-2/16/play-music-triangle-media-128.png;rotation=-180;" parent="bdTvPmMyvIndACcMK4d0-467" vertex="1">
          <mxGeometry x="-5" y="9.5" width="10.5" height="10.5" as="geometry" />
        </mxCell>
        <mxCell id="bdTvPmMyvIndACcMK4d0-469" value="pay" style="text;html=1;align=center;verticalAlign=middle;resizable=0;points=[];autosize=1;strokeColor=none;fillColor=none;" parent="bdTvPmMyvIndACcMK4d0-467" vertex="1">
          <mxGeometry y="-2" width="40" height="30" as="geometry" />
        </mxCell>
        <mxCell id="bdTvPmMyvIndACcMK4d0-472" value="" style="group" parent="1" vertex="1" connectable="0">
          <mxGeometry x="754" y="720" width="65" height="30" as="geometry" />
        </mxCell>
        <mxCell id="bdTvPmMyvIndACcMK4d0-473" value="" style="shape=image;html=1;verticalAlign=top;verticalLabelPosition=bottom;labelBackgroundColor=#ffffff;imageAspect=0;aspect=fixed;image=https://cdn4.iconfinder.com/data/icons/essential-app-2/16/play-music-triangle-media-128.png;rotation=-180;" parent="bdTvPmMyvIndACcMK4d0-472" vertex="1">
          <mxGeometry x="-5" y="9.5" width="10.5" height="10.5" as="geometry" />
        </mxCell>
        <mxCell id="bdTvPmMyvIndACcMK4d0-474" value="scheduledBy" style="text;html=1;align=center;verticalAlign=middle;resizable=0;points=[];autosize=1;strokeColor=none;fillColor=none;" parent="bdTvPmMyvIndACcMK4d0-472" vertex="1">
          <mxGeometry x="-2" y="-2" width="90" height="30" as="geometry" />
        </mxCell>
        <mxCell id="bdTvPmMyvIndACcMK4d0-475" value="" style="group" parent="1" vertex="1" connectable="0">
          <mxGeometry x="1170" y="680" width="78" height="30" as="geometry" />
        </mxCell>
        <mxCell id="bdTvPmMyvIndACcMK4d0-476" value="" style="shape=image;html=1;verticalAlign=top;verticalLabelPosition=bottom;labelBackgroundColor=#ffffff;imageAspect=0;aspect=fixed;image=https://cdn4.iconfinder.com/data/icons/essential-app-2/16/play-music-triangle-media-128.png;rotation=-180;" parent="bdTvPmMyvIndACcMK4d0-475" vertex="1">
          <mxGeometry x="-5" y="9.5" width="10.5" height="10.5" as="geometry" />
        </mxCell>
        <mxCell id="bdTvPmMyvIndACcMK4d0-477" value="&lt;span style=&quot;font-family: Aptos, sans-serif; font-size: 14.6667px; text-align: start; text-wrap: wrap; background-color: rgb(255, 255, 255);&quot;&gt;require&lt;/span&gt;" style="text;html=1;align=center;verticalAlign=middle;resizable=0;points=[];autosize=1;strokeColor=none;fillColor=none;" parent="bdTvPmMyvIndACcMK4d0-475" vertex="1">
          <mxGeometry x="8" y="-2" width="70" height="30" as="geometry" />
        </mxCell>
        <mxCell id="bdTvPmMyvIndACcMK4d0-478" value="" style="group" parent="1" vertex="1" connectable="0">
          <mxGeometry x="385" y="680" width="78" height="30" as="geometry" />
        </mxCell>
        <mxCell id="bdTvPmMyvIndACcMK4d0-479" value="" style="shape=image;html=1;verticalAlign=top;verticalLabelPosition=bottom;labelBackgroundColor=#ffffff;imageAspect=0;aspect=fixed;image=https://cdn4.iconfinder.com/data/icons/essential-app-2/16/play-music-triangle-media-128.png;rotation=-180;" parent="bdTvPmMyvIndACcMK4d0-478" vertex="1">
          <mxGeometry x="-5" y="9.5" width="10.5" height="10.5" as="geometry" />
        </mxCell>
        <mxCell id="bdTvPmMyvIndACcMK4d0-480" value="&lt;span style=&quot;font-size: 11px; background-color: rgb(255, 255, 255);&quot;&gt;generate&lt;/span&gt;" style="text;html=1;align=center;verticalAlign=middle;resizable=0;points=[];autosize=1;strokeColor=none;fillColor=none;" parent="bdTvPmMyvIndACcMK4d0-478" vertex="1">
          <mxGeometry x="8" y="-2" width="70" height="30" as="geometry" />
        </mxCell>
        <mxCell id="bdTvPmMyvIndACcMK4d0-464" value="" style="shape=image;html=1;verticalAlign=top;verticalLabelPosition=bottom;labelBackgroundColor=#ffffff;imageAspect=0;aspect=fixed;image=https://cdn1.iconfinder.com/data/icons/ionicons-fill-vol-2/512/triangle-128.png;rotation=90;" parent="1" vertex="1">
          <mxGeometry x="365" y="439.5" width="11" height="11" as="geometry" />
        </mxCell>
      </root>
    </mxGraphModel>
  </diagram>
</mxfile>
